<?xml version="1.0" encoding="utf-8"?>
<!-- Generator: Adobe Illustrator 24.0.0, SVG Export Plug-In . SVG Version: 6.00 Build 0)  -->
<svg version="1.1" id="Calque_1" xmlns="http://www.w3.org/2000/svg" xmlns:xlink="http://www.w3.org/1999/xlink" x="0px" y="0px"
	 viewBox="0 0 1920 1080" style="enable-background:new 0 0 1920 1080;" xml:space="preserve">
<style type="text/css">
	.st0{opacity:0.94;fill:#E9A377;enable-background:new    ;}
	.st1{opacity:0.7;fill:#E9A377;enable-background:new    ;}
	.st2{fill:#66381E;}
	.st3{fill:none;stroke:#000000;stroke-miterlimit:10;}
	.st4{fill:#EFE8E4;}
	.st5{fill:#FFFFFF;}
	.st6{fill:#FFB38B;}
	.st7{opacity:0.74;fill:#DDA68A;enable-background:new    ;}
	.st8{fill:#DA6A38;}
	.st9{fill:#F9CB8F;}
	.st10{fill:#FFFFF5;}
	.st11{fill:#000B20;}
	.st12{fill:#D48633;}
	.st13{fill:#EF6D3F;}
	.st14{fill:#FDBC5D;}
	.st15{fill:#124A7A;}
	.st16{fill:#114B7E;}
	.st17{fill:#055086;}
	.st18{fill:#0E4B82;}
	.st19{fill:#104A77;}
	.st20{fill:#020F29;}
	.st21{fill:#F1BD62;}
	.st22{fill:#FFB762;}
	.st23{fill:#D67568;}
	.st24{fill:#22020C;}
	.st25{fill:#F2AA8B;}
	.st26{fill:#F2AA8B;stroke:#22020C;stroke-width:0.25;stroke-miterlimit:10;}
	.st27{fill:#B74F63;}
	.st28{fill:#97212D;}
	.st29{fill:none;stroke:#73003B;stroke-miterlimit:10;}
	.st30{opacity:0.49;fill:#22020C;enable-background:new    ;}
	.st31{opacity:0.48;fill:#22020C;enable-background:new    ;}
	.st32{fill:#603112;}
	.st33{fill:#9B4F00;}
	.st34{fill:#38231A;}
	.st35{fill:#2B1E1D;}
	.st36{fill:#2A120D;}
	.st37{fill:#FAF4F4;}
	.st38{fill:none;}
	.st39{fill:#B3B3B3;}
	.st40{fill:#FBFBFB;}
	.st41{display:none;}
	.st42{fill:#ED1C24;stroke:#000000;stroke-miterlimit:9.96;}
	.st43{fill:#ED1C24;stroke:#000000;stroke-miterlimit:10;}
	.st44{fill:#D81624;stroke:#000000;stroke-width:0.5;stroke-miterlimit:10;}
	.st45{fill:#020201;}
	.st46{opacity:0.2;fill:#FFFFFF;enable-background:new    ;}
	.st47{fill:#F2AA8B;stroke:#000000;stroke-width:2;stroke-miterlimit:10;}
	.st48{fill:#ED9C80;}
	.st49{fill:#0D0014;stroke:#000000;stroke-width:2;stroke-miterlimit:10;}
	.st50{fill:#69225D;stroke:#000000;stroke-width:2;stroke-miterlimit:10;}
	.st51{fill:#F2AA8B;stroke:#000000;stroke-width:0.5;stroke-miterlimit:10;}
	.st52{fill:#761063;stroke:#000000;stroke-width:2;stroke-miterlimit:10;}
	.st53{fill:#010200;stroke:#000000;stroke-width:2;stroke-miterlimit:10;}
	.st54{fill:#D54AB4;}
	.st55{opacity:0.5;fill:#ED9C80;enable-background:new    ;}
	.st56{stroke:#000000;stroke-width:3;stroke-miterlimit:10;}
	.st57{opacity:0.56;fill:#ED9C80;enable-background:new    ;}
	.st58{opacity:0.5;fill:#E4EFEF;enable-background:new    ;}
	.st59{fill:#FEFEFE;stroke:#000000;stroke-width:2;stroke-miterlimit:10;}
	.st60{opacity:0.69;fill:#7A7A7A;enable-background:new    ;}
	.st61{fill:#010202;}
	.st62{fill:#488838;stroke:#427733;stroke-width:2;stroke-miterlimit:10;}
	.st63{fill:#AA2302;}
	.st64{opacity:0.59;fill:#D87360;enable-background:new    ;}
	.st65{fill:#D87360;}
	.st66{fill:#FF6633;stroke:#E55730;stroke-width:2;stroke-miterlimit:10;}
	.st67{fill:#D3A054;stroke:#C18F4D;stroke-miterlimit:10;}
	.st68{fill:#FCCC00;stroke:#EABE03;stroke-miterlimit:10;}
	.st69{opacity:0.56;fill:#FFD62C;enable-background:new    ;}
	.st70{opacity:0.71;fill:#FDF1D6;enable-background:new    ;}
	.st71{fill:#EFC206;}
	.st72{fill:#F6D251;stroke:#E0BC4B;stroke-width:2;stroke-miterlimit:10;}
	.st73{fill:#FFFEF6;}
	.st74{fill:#8C5B3C;stroke:#7F4F34;stroke-miterlimit:10;}
	.st75{fill:#FFDEBD;}
	.st76{fill:#322523;stroke:#000000;stroke-width:2;stroke-miterlimit:10;}
	.st77{fill:#000002;}
	.st78{fill:#352D2E;}
	.st79{fill:#00A86B;}
	.st80{fill:#020202;}
	.st81{fill:#F2AA8B;stroke:#000000;stroke-width:0.25;stroke-miterlimit:10;}
	.st82{fill:#EBE9E6;}
	.st83{opacity:0.41;fill:#8594A7;enable-background:new    ;}
	.st84{opacity:0.4;fill:#AAAAAE;enable-background:new    ;}
	.st85{opacity:0.36;fill:#737F8F;enable-background:new    ;}
	.st86{opacity:0.36;fill:#758294;enable-background:new    ;}
	.st87{opacity:0.3;fill:#B2B2B4;enable-background:new    ;}
	.st88{fill:#AAA9B4;}
	.st89{opacity:0.36;}
	.st90{fill:#F4B527;}
	.st91{opacity:0.4;fill:#E59C83;enable-background:new    ;}
	.st92{opacity:0.36;fill:#020202;enable-background:new    ;}
	.st93{fill:#77BDCF;}
	.st94{opacity:0.73;fill:#00A596;enable-background:new    ;}
	.st95{fill:#7B9F4E;}
	.st96{fill:#716F64;}
	.st97{fill:#5B9278;}
	.st98{fill:#669966;}
	.st99{fill:#6D605B;}
	.st100{fill:#6C6F4F;}
	.st101{fill:#00A596;}
	.st102{fill:#CBCFCE;}
	.st103{fill:#AEACA8;}
	.st104{fill:#716968;}
	.st105{fill:#B7A59C;}
	.st106{fill:#6A5B54;}
	.st107{fill:#DEE2E4;}
	.st108{fill:#EAF7FA;}
	.st109{fill:#454338;}
	.st110{fill:#F7F0EE;}
	.st111{fill:#DCC9C2;}
	.st112{fill:#493423;}
	.st113{fill:#695F53;}
	.st114{fill:#8B8174;}
	.st115{fill:#DCD1D0;}
	.st116{fill:#857D71;}
	.st117{fill:#D7CDC7;}
	.st118{fill:#AB9F91;}
	.st119{fill:#E6E2E7;}
	.st120{fill:#764D39;}
	.st121{fill:#9F7464;}
	.st122{fill:#E7F1F1;}
	.st123{fill:#92AEAB;}
	.st124{fill:#6D9C91;}
	.st125{fill:#BDCFC8;}
	.st126{fill:#AFA59F;}
	.st127{fill:#E0DEDE;}
	.st128{fill:#F1EAE8;}
	.st129{fill:#F6F0F3;}
	.st130{fill:#D7D0CF;}
	.st131{fill:#DCC2B9;}
	.st132{fill:#723B22;}
	.st133{fill:#532421;}
	.st134{fill:#301F16;}
	.st135{fill:#B39578;}
	.st136{fill:#DECFCD;}
	.st137{fill:#613E2D;}
	.st138{fill:#5D2921;}
	.st139{fill:#A46E45;}
	.st140{fill:#A0DEBA;}
	.st141{opacity:0.74;fill:#53B592;enable-background:new    ;}
	.st142{opacity:0.69;fill:#227B6E;enable-background:new    ;}
	.st143{fill:#39AB7C;}
	.st144{fill:#115259;}
	.st145{fill:#2B9779;}
	.st146{fill:#022E2E;}
	.st147{fill:#0F464C;}
	.st148{fill:#174040;stroke:#000000;stroke-width:0.75;stroke-miterlimit:10;}
	.st149{fill:#FFFBFE;stroke:#000000;stroke-width:0.75;stroke-miterlimit:10;}
	.st150{opacity:0.24;fill:#96ABA8;enable-background:new    ;}
	.st151{fill:#13231B;}
	.st152{fill:#F57B7E;stroke:#000000;stroke-width:0.75;stroke-miterlimit:10;}
	.st153{fill:#5B9278;stroke:#000000;stroke-width:0.75;stroke-miterlimit:10;}
	.st154{fill:#E2C4A5;stroke:#000000;stroke-width:0.5;stroke-miterlimit:10;}
	.st155{opacity:0.47;fill:#427D70;enable-background:new    ;}
	.st156{fill:#0F362E;stroke:#000000;stroke-width:0.75;stroke-miterlimit:10;}
	.st157{opacity:0.4;fill:#277065;enable-background:new    ;}
	.st158{fill:#60483D;}
	.st159{fill:#38302C;}
	.st160{fill:#524B43;}
	.st161{fill:#863C3E;}
	.st162{fill:#682E2A;}
	.st163{fill:#B76A66;}
	.st164{fill:#05241C;}
	.st165{fill:#FCD9B4;}
	.st166{fill:#312F23;}
	.st167{fill:#664848;}
	.st168{fill:#CCB6A5;}
	.st169{fill:#C87E4B;}
	.st170{fill:#B9936A;}
	.st171{fill:#DBC8C5;}
	.st172{fill:#AD6B4E;}
</style>
<title>lit</title>
<g id="Calque_1-2">
	<path class="st0" d="M331.8,730.4c87.8-201.8,136.8-314.5,237.6-339.1c95.9-23.5,163.3,51.1,214,9.9c49.2-40-4.2-118.5,39-200.2
		c58.9-111.6,265.7-167.5,360-97.4c94.8,70.5,35.1,237.7,119.7,275.1c68.6,30.4,124.9-72.1,230.3-48.7
		c87.3,19.4,161.2,114.6,168.7,200.2c5,57.4-23.7,66.5-15.4,125.4c12.4,88.3,82.6,107.7,87,171.4c5.8,82.4-104.6,152.2-119.7,161.4
		c-146.8,90.5-242.3-15.3-519.6,16.2c-194.1,22-223.5,82.4-370,57.7c-101.9-17.2-123.7-52.5-240.3-61.3
		c-149.2-11.3-216.5,38.8-253,0C232.6,961,270,872.4,331.8,730.4z"/>
	<path class="st1" d="M339,836.4c5.1-187.7,8-292.4,80-343.8c68.5-48.9,145.8-11.1,172.8-59.8c26.2-47.2-41.2-92.6-33-171
		C569.9,154.8,715.8,45.2,813,70.9c97.7,25.9,103.7,177.3,182.7,180.2c64.1,2.4,76-96.6,167-111.4c75.3-12.2,164.3,39.8,197.6,105.4
		c22.3,43.9,2.5,60.2,27.8,104.2c38,66.1,99.9,59.3,123.7,108.3c30.8,63.4-34.3,153.6-43.3,165.8c-87.4,118-196.9,64.5-406.6,177
		c-146.7,78.7-150.8,136-274.8,162.6c-86.2,18.5-114.8-2.5-210,27.3c-121.9,38.2-159,99.2-200.5,80
		C334,1050.6,335.4,968.6,339,836.4z"/>
</g>
<g id="Calque_5">
	<path class="st2" d="M1634.9,691.1v245.8c0,6.7,5.5,12.2,12.2,12.2h0h0.4c6.6-0.2,11.8-5.6,11.8-12.2V691.1
		c0-6.7-5.5-12.2-12.2-12.1l0,0C1640.5,679,1635,684.4,1634.9,691.1L1634.9,691.1z"/>
	<path class="st2" d="M393.9,558.1L393.9,558.1c8.5,0,15.4,6.9,15.5,15.4c0,0,0,0,0,0v372.4c0,8.5-6.9,15.4-15.5,15.4c0,0,0,0,0,0
		l0,0c-8.5,0-15.5-6.9-15.5-15.4c0,0,0,0,0,0V573.5C378.5,565,385.4,558.1,393.9,558.1C393.9,558.1,393.9,558.1,393.9,558.1z"/>
	<rect x="378.1" y="939.6" class="st2" width="1281.4" height="38"/>
	
		<image style="overflow:visible;opacity:0.69;enable-background:new    ;" width="1393" height="263" xlink:href="6EB363362727B30D.png"  transform="matrix(0.9146 0 0 0.9045 370.81 -10.6947)">
	</image>
	<path class="st3" d="M378.5,2.1c701,375.2,825.8,164.2,1241.5-0.9"/>
	<g id="Calque_2_1_">
		<g id="Avion">
			<g id="avion_pola">
				
					<image style="overflow:visible;opacity:0.25;enable-background:new    ;" width="569" height="746" xlink:href="6EB363362727B317.png"  transform="matrix(9.000000e-02 3.000000e-02 -3.000000e-02 9.000000e-02 723.92 154.11)">
				</image>
				<path class="st4" d="M714.4,215.3c-0.6-0.2-1-0.8-0.8-1.4l14.8-51.5c0.2-0.7,1-1.1,1.7-0.9l35.9,10.2c0.6,0.2,1,0.8,0.8,1.4
					c0,0,0,0,0,0l-14.9,51.7c-0.2,0.6-0.8,1-1.4,0.8L714.4,215.3z"/>
				<path class="st5" d="M766,171.7c0.6,0.2,0.9,0.8,0.8,1.4l-14.9,51.7c-0.2,0.6-0.8,0.9-1.4,0.8l-36.1-10.3
					c-0.6-0.2-0.9-0.8-0.8-1.4l14.8-51.5c0.2-0.7,0.9-1.1,1.6-0.9L766,171.7 M766,171.6l-35.9-10.2c-0.7-0.2-1.5,0.2-1.7,0.9l0,0
					l-14.8,51.6c-0.2,0.6,0.2,1.3,0.8,1.5c0,0,0,0,0,0l36.1,10.3c0.6,0.2,1.3-0.2,1.5-0.8c0,0,0,0,0,0l14.9-51.7
					C767,172.4,766.7,171.8,766,171.6L766,171.6z"/>
				<polygon class="st6" points="719.1,203.6 729.8,166.6 763.5,176.2 752.9,213.2 				"/>
				<path class="st5" d="M763.5,176.2l-10.6,37l-33.7-9.6l10.6-37L763.5,176.2 M763.6,176.2l-33.9-9.6L719,203.7l33.9,9.6
					L763.6,176.2z"/>
				<path class="st5" d="M762.1,177.2l-10,34.7l-31.6-9l10-34.7L762.1,177.2 M762.2,177.1l-31.8-9.1l-10,34.8l31.8,9.1L762.2,177.1z
					"/>
				<path id="Scotch" class="st7" d="M737,160.2l23.6,6.7c0,0,1,1.6-1,3.4l0.8,1.9L759,173l-24.8-7.1l1.2-0.9l-0.4-0.1l1.5-1.6
					l-0.8-2.3l0.7-0.1l-0.1-0.2L737,160.2z"/>
				<polygon class="st8" points="722.9,190.7 723.2,189.4 756.9,199 756.5,200.3 				"/>
				<polygon class="st8" points="722.6,191.7 722.7,191.3 756.4,200.9 756.3,201.3 				"/>
				<polygon class="st8" points="722.2,193 722.3,192.9 755.9,202.5 755.9,202.6 				"/>
				<polygon class="st8" points="721.8,194.8 721.8,194.7 755.5,204.3 755.5,204.4 				"/>
				<polygon class="st8" points="721.3,196.2 721.3,196.1 755,205.7 755,205.8 				"/>
				<polygon class="st8" points="721.1,197.3 721.1,197.2 754.8,206.8 754.8,206.9 				"/>
				<path class="st5" d="M763.5,176.2l-10.6,36.9l-33.7-9.6l10.6-36.9L763.5,176.2 M763.6,176.2l-33.9-9.6L719,203.7l33.9,9.6
					L763.6,176.2z"/>
				<ellipse class="st9" cx="739.7" cy="182.1" rx="2.7" ry="2.7"/>
				<path class="st10" d="M724.6,181l17.1,4.9l-2.9-1.5c0,0,0.1-3.7-2.7-1.1c0,0,0.2-3-1.8-0.8c0,0-2.3-2.6-3.8-0.8
					c0,0-2.6-5.1-4.5-5.3s-3.8,1.6-4.8,3.7L724.6,181z"/>
				<path class="st10" d="M750.1,184.2l11.7,3.3c0,0,3.4-7.5-3.2-3.3c0,0-0.4-4.1-3.3-0.3c0,0-0.6-2.3-2.8-0.1
					c-0.3-0.9-1.3-1.3-2.2-1c-0.2,0.1-0.3,0.1-0.5,0.3c-0.7-0.6-1.8-0.5-2.4,0.2l0,0L750.1,184.2z"/>
				<path class="st10" d="M747.7,196.5l12.9,3.7c0,0,2.9-5.3-3.8-2.8c0,0-0.8-3.1-3.6-0.5c0,0-0.9-1.8-3-0.4c-0.7-0.9-1.9-1.3-3-0.8
					c-0.8-0.5-1.8-0.5-2.6,0L747.7,196.5z"/>
				<path class="st10" d="M740.8,182.7l3.8,1.1c0,0,0.7-2-1.3-0.9c0,0,0.8-2-1-0.4c0,0,0-1-0.8-0.4L740.8,182.7z"/>
				<ellipse transform="matrix(0.4233 -0.906 0.906 0.4233 259.1431 788.2396)" cx="748.7" cy="190.6" rx="0.2" ry="0.2"/>
				<ellipse transform="matrix(0.4233 -0.906 0.906 0.4233 258.0214 787.3001)" cx="747.4" cy="191" rx="0.2" ry="0.2"/>
				<ellipse transform="matrix(0.4233 -0.906 0.906 0.4233 256.9979 786.3547)" cx="746.1" cy="191.3" rx="0.2" ry="0.2"/>
				<ellipse transform="matrix(0.4233 -0.906 0.906 0.4233 255.8854 785.4033)" cx="744.8" cy="191.7" rx="0.2" ry="0.2"/>
				<ellipse transform="matrix(0.4233 -0.906 0.906 0.4233 254.8679 784.4371)" cx="743.6" cy="192" rx="0.2" ry="0.2"/>
				<ellipse transform="matrix(0.4233 -0.906 0.906 0.4233 248.4012 778.8855)" cx="736" cy="194.3" rx="0.2" ry="0.2"/>
				<ellipse transform="matrix(0.4233 -0.906 0.906 0.4233 247.3734 777.9144)" cx="734.7" cy="194.7" rx="0.2" ry="0.2"/>
				<ellipse transform="matrix(0.4233 -0.906 0.906 0.4233 246.3588 776.9633)" cx="733.4" cy="195" rx="0.2" ry="0.2"/>
				<ellipse transform="matrix(0.4233 -0.906 0.906 0.4233 245.2415 776.0223)" cx="732.1" cy="195.4" rx="0.2" ry="0.2"/>
				<ellipse transform="matrix(0.4264 -0.9045 0.9045 0.4264 250.1717 783.7791)" cx="743.1" cy="194.6" rx="0.2" ry="0.2"/>
				<path id="corps" class="st10" d="M747,195.3l0.1-0.2c0,0,6-2,6.8-2.6c0,0,3.3-1.5,0.4-2.9c0,0-0.3-1.1-2.4-1.1
					c0,0-0.4-0.2-2,0.3l-9,2.9l-12.9,4.1c0,0-1.5,1.4,0.5,1.3l5.7,0.9c1.5,0,2.9-0.2,4.3-0.5c1.1-0.4,2.3-0.4,3.4-0.2
					c1.2-0.1,2.3-0.4,3.4-0.9c0.5-0.2,1-0.5,1.5-0.8C746.9,195.5,747,195.4,747,195.3z"/>
				<path id="fenetre" class="st11" d="M754.3,189.6c-0.9-0.2-1.8-0.1-2.6,0.2C751.7,189.8,752.2,187.9,754.3,189.6z"/>
				<path class="st12" d="M742.6,191.4l7.8-1.4c0,0,0-0.8,0.6-1S742.6,191.4,742.6,191.4z"/>
				<polygon class="st13" points="735.9,193.9 735.6,193.6 730.5,195.2 				"/>
				<path class="st14" d="M754.4,190.1c0,0,3.5,1.1-5,3.9l-2.5,0.9c-0.1,0.5-0.5,0.9-1,1.1c-1.2,0.7-2.5,1.2-3.9,1.3l2.8,1.4
					l-5.9-1.4l-3.5,0.4c0,0-6.2-0.4-6.4-0.5h-0.7l6.9-0.2c0,0,2.4-0.5,2.7-1.1c0.2-0.3,0.2-0.7,0-1l4.8-1.7c0,0,1.2,2,0.7,2.8
					c0,0,2.2-0.6,3-1.8c0,0,6.3-2.1,7.5-2.9h0C754,191.2,754.9,190.7,754.4,190.1z"/>
				<path id="aile2" class="st15" d="M753.9,202.9c0.1-0.4-0.1-0.8-0.3-1.2c-0.5-0.7-6.6-6.6-6.6-6.6l-5,2.2l11.6,5.3L753.9,202.9z"
					/>
				<polygon id="derriere" class="st16" points="733.4,194.1 732.3,190.1 730.7,190.5 729.8,195.2 				"/>
				<polygon id="fesse2" class="st17" points="733.4,197.5 734.8,199.2 734.2,199.4 729.8,197.2 				"/>
				<path class="st10" d="M749.8,199.2c0,0,1.5-1.9-0.3-2.7c-0.4-0.1-0.8,0-1.2,0.1c-0.8,0.2-1.5,0.5-2.2,0.8
					c-0.6,0.4-0.7,1.1-0.3,1.7c0,0,0,0,0,0c0,0.1,0.1,0.1,0.2,0.2c0.5,0.3,1.1,0.4,1.7,0.4C748.4,199.6,749.1,199.4,749.8,199.2z"/>
				<path id="aile1" class="st18" d="M742.6,193.2l-18.1-8.4c0,0-1-0.2-1,0.1s14.7,10.3,14.7,10.3l4.5-1.6L742.6,193.2z"/>
				<path class="st10" d="M740.3,193.2c0,0,1.5-1.7-0.4-2.7c0,0-0.2-0.2-2.2,0.4c0,0-1.3,0.6-1.6,1c0,0-0.4,0.6,0.4,1.7
					c0,0,1.9,0.5,2.8-0.1C739.7,193.5,740,193.4,740.3,193.2z"/>
				<path id="fesse" class="st19" d="M730.1,195.5l-6-2.7l-1.3,0.1l5.5,3.3C728.3,196.2,729.6,196.3,730.1,195.5z"/>
				<path class="st20" d="M748.6,198.6c0.3,0.4,0.8,0.5,1.2,0.2c0.1-0.1,0.2-0.2,0.3-0.3c0.1-0.2,0.2-0.4,0.2-0.7c0-0.2,0-0.4,0-0.6
					c-0.1-0.5-0.6-0.8-1.1-0.6c-0.2,0.1-0.3,0.1-0.4,0.3c-0.2,0.2-0.3,0.5-0.2,0.8C748.4,198,748.5,198.3,748.6,198.6z"/>
				<path class="st21" d="M749,199.4c0,0-1-0.2-0.8-2c0,0,0.1-0.6-0.6,1l-1.8,0.5c0,0,0,0.5,1,0.6
					C747.6,199.8,748.3,199.7,749,199.4z"/>
				<path class="st22" d="M739.4,193.5c0,0-1-0.2-0.8-2c0,0,0.1-0.6-0.6,1l-1.8,0.5c0,0.4,0.3,0.7,0.7,0.7c0,0,0,0,0,0
					C736.9,193.7,738.7,194,739.4,193.5z"/>
				<polygon class="st23" points="748,197 748.4,196.7 746.5,197.4 				"/>
				<polygon class="st23" points="738.5,191.1 738.7,190.7 737,191.4 				"/>
				<path class="st20" d="M739.1,192.7c0.2,0.4,0.7,0.5,1.1,0.3l0,0c0.1-0.1,0.2-0.2,0.3-0.3c0.1-0.2,0.2-0.4,0.2-0.7
					c0-0.2,0-0.4,0-0.6c-0.1-0.5-0.6-0.8-1.1-0.6c0,0,0,0,0,0c-0.2,0-0.3,0.1-0.4,0.3c-0.2,0.2-0.3,0.5-0.2,0.8
					C738.9,192.2,738.9,192.5,739.1,192.7z"/>
			</g>
		</g>
	</g>
	<g id="Calque_2-2">
		<g id="Polaroid">
			<g id="Polaroid-2">
				
					<image style="overflow:visible;opacity:0.25;enable-background:new    ;" width="569" height="745" xlink:href="6EB363362727B319.png"  transform="matrix(8.000000e-02 2.000000e-02 -2.000000e-02 8.000000e-02 804.23 179.78)">
				</image>
				<path class="st4" d="M799.5,236.1c-0.6-0.1-0.9-0.7-0.8-1.2l10.2-47.9c0.2-0.6,0.8-1,1.5-0.9l33.4,7c0.5,0.1,0.9,0.6,0.8,1.1
					c0,0,0,0,0,0.1l0,0l-10.2,48.1c-0.1,0.6-0.7,0.9-1.2,0.8l0,0L799.5,236.1z"/>
				<path class="st5" d="M843.8,193.1c0.5,0.1,0.9,0.6,0.8,1.2c0,0,0,0,0,0l-10.2,48.2c-0.1,0.5-0.6,0.9-1.2,0.8c0,0,0,0,0,0
					l-33.6-7.1c-0.5-0.1-0.9-0.6-0.8-1.2c0,0,0,0,0,0l10.2-48c0.1-0.6,0.8-1,1.4-0.9c0,0,0,0,0,0l0,0L843.8,193.1 M843.8,193
					l-33.4-7c-0.7-0.1-1.4,0.3-1.5,1c0,0,0,0,0,0l0,0L798.7,235c-0.1,0.6,0.3,1.2,0.8,1.3l0,0l33.5,7.1c0.6,0.1,1.2-0.2,1.3-0.8l0,0
					l10.2-48.1C844.8,193.8,844.4,193.2,843.8,193L843.8,193L843.8,193z"/>
				<polygon class="st6" points="803.1,224.6 810.4,190.1 841.8,196.7 834.5,231.2 				"/>
				<path class="st5" d="M841.8,196.8l-7.3,34.4l-31.3-6.6l7.3-34.4L841.8,196.8 M841.9,196.7l-31.5-6.6l-7.4,34.5l31.5,6.6
					L841.9,196.7z"/>
				<path id="Scotch-2" class="st7" d="M816.8,183.8l21.9,4.6c0,0,1,1.4-0.7,3.2l0.9,1.6l-1.3,0.8l-23.1-4.8l1-0.9l-0.4-0.1l1.2-1.6
					l-0.9-2.1l0.6-0.1l-0.1-0.2L816.8,183.8z"/>
				<path class="st5" d="M841.8,196.8l-7.3,34.4l-31.3-6.6l7.3-34.4L841.8,196.8 M841.9,196.7l-31.5-6.6l-7.4,34.5l31.5,6.6
					L841.9,196.7z"/>
			</g>
			<path id="cheveux" class="st24" d="M816.4,209c0,0,0.7-4,0.8-4.3c0.1-0.6,0.2-1.1,0.4-1.7l-0.2-0.4c0,0,0.4-0.6,0.2-0.9
				c-0.1-0.2-0.2-0.5-0.2-0.7c0.4-1,0.9-2,1.4-2.9c0.6-0.4,1.3-0.7,2-0.8c0.5-0.2,0.9-0.2,1.4-0.1c0.9,0.1,1.7,0.4,2.4,0.9
				c0.2,0.2,0.4,0.1,1.4,1.6c0.2,0.8,0.3,1.7,0.3,2.5c0.1,1.8,0,4.9,0,4.9c0.3,1.6,0,3.3-0.9,4.6L816.4,209"/>
			<path class="st25" d="M818,208.3c0,0,1.2-1.2,1-1.6s3.1,0.5,3.1,0.5s-0.3,2,0.6,1.8S817.8,214.8,818,208.3"/>
			<path class="st26" d="M821.9,207.3c0,0-1.8,0.6-2.5,0.1s-1.4-2.9-1.4-2.9s-0.3-0.6,0.3-2.6c0,0,0.1-0.8,0.2-0.9s0.7,0.1,0.7,0.1
				l0.1-0.4l0.2,0.4h0.2l0.7,0.3l0.4,0.1l-0.3-0.5c0.2,0.3,0.5,0.5,0.8,0.7c0.3,0,0.6,0.1,0.8,0.1c0,0-0.9-1.8-0.6-1.8
				c0,0,0.7,1.8,1.1,1.8l1.2,0.2l0.4,0.2c0.1,0.7,0.1,1.3,0,2c0,0.1-0.1,0.3-0.1,0.4C823.7,205.1,822.8,206.9,821.9,207.3"/>
			<path class="st24" d="M823.9,203.2c0,0-0.5,0.4-2.1-0.2"/>
			<path class="st24" d="M820.1,202.6c0,0-0.4,0.3-1.7-0.2"/>
			<path class="st24" d="M820.6,204.8c0,0-0.3-0.2-0.3-0.2"/>
			<path class="st24" d="M820,204.8c-0.1-0.1-0.5-0.3-0.4-0.6"/>
			<path class="st27" d="M819.2,205.2c0.1,0,0.2,0,0.3,0c0.1-0.2,0.3-0.2,0.5-0.1c0,0,0.1,0.1,0.1,0.1c0.2-0.2,0.7,0.4,0.7,0.4
				l0.6,0.1c-0.3,0.2-0.7,0.4-1.1,0.4c-0.3,0-0.4,0.2-0.8-0.2C819.4,205.7,819.3,205.5,819.2,205.2z"/>
			<path id="pull" class="st28" d="M811.1,220.8l-5.3-1.8c-0.1,0-0.1-0.1-0.1-0.1l-0.3-1.1c-0.1-0.3,0.3-0.8,0.4-0.9l0,0
				c0.1-0.3,0.4-0.5,0.6-0.6c0.1,0,0.1-0.1,0.1-0.2c0.1-0.3,0.2-0.7,0.4-1c0-0.1,0-0.1,0-0.2c-0.5-1.1,0.1-1.3,0.1-1.3
				c0.2-0.1,0.4-0.6,0.5-0.7v-0.1c0-1.9,2.3-4.2,2.5-4.4l0,0c0.9-1.3,2.6-1.7,4.1-1c0.4,0,0.8,0,1.1,0.1h0.1
				c0.5-0.1,1.4,0.3,1.6,0.2l0.8-0.2c0.1,0,0.2,0,0.3,0.2l0,0c0.2,1,1,4.9,4.8,0.9c0.1-0.1,0.2-0.1,0.2-0.1c1.3,0.4,2.5,1.1,3.6,1.9
				c0.1,0,0.2,0,0.2,0c0.3-0.1,0.6-0.1,0.9,0.1c0,0,0.1,0,0.1,0c1.3,0.1,2.6,0.6,3.6,1.4l0,0c0.5,0.2,1,0.4,1.6,0.6
				c0.1,0,0.1,0,0.2,0c0.1-0.1,0.3-0.1,0.7,0.1c0.1,0.1,0.2,0.1,0.3,0c0.3-0.2,0.7-0.2,0.9,0c0,0,0.1,0,0.1,0.1
				c0.4,0.1,3.7,1.4,0.7,4.7l0,0c-0.1,0.1-0.2,0.1-0.3,0c0,0,0,0,0,0c0,0,0-0.1,0-0.1c0-1.1-0.9-1.9-1.9-1.9c0,0,0,0-0.1,0h-0.2
				c-0.2,0-0.2-0.3-0.2-0.3"/>
			<path class="st29" d="M821.2,205.8l-0.9-0.2c-0.4-0.1-0.7-0.2-1.1-0.3"/>
			<path class="st30" d="M822.2,202.1c0,0,1.4-0.4,1.7,0.2c0,0-1.3-0.1-1.7-0.1S822.2,202.1,822.2,202.1z"/>
			<path class="st31" d="M820.1,201.8c0,0-1.1-0.9-1.6-0.5c0,0,1.2,0.4,1.5,0.6S820.1,201.8,820.1,201.8z"/>
			<path class="st28" d="M832.6,215.4L832.6,215.4l-16.6,5.5l0,0c-0.2,0-1.2,0.1-1.2,0.1l-3.5-0.2c-0.1,0-0.2,0-0.2-0.1
				c-0.1-0.2-0.2-0.6-0.2-0.6s0.2-1.4,0.5-1.5s-0.3-1.6-0.1-1.7c0,0,0.1-0.1,0.1-0.1c0.1-0.1,0.1-0.2,0.2-0.3c0.1,0,0.1-0.1,0.1-0.1
				c0-0.2,0.1-0.5,0.2-0.5c-0.3-0.3-0.4-0.8-0.2-1.1c0,0,0-0.1,0-0.1c-0.2-0.5-0.3-1-0.4-1.5c0,0,0.6,1.7,0.3,2
				c-0.3,0.4-0.6,0.8-0.7,1.2c0,0-0.4,0.6-0.3,0.9c0,0,0.2,0.1-0.2,0.9c0.1,0.5-0.1,1.1-0.4,1.5c0,0,0.1,0.6-0.3,0.9"/>
			<path id="mèche" class="st24" d="M816.5,207.6c0.1,0.7,0,1.4-0.1,2.1l-0.3,1.4c0,0,2.1-2.5,1.9-3.7S816.5,207.6,816.5,207.6"/>
			<path class="st24" d="M822.2,208.4c0,0,0.3-0.5,0.2,1.7s0,3.5,0,3.5s1.3-6.1,2.1-5.2S822.2,208.4,822.2,208.4z"/>
			<path class="st24" d="M825.2,209.5c0,0,0.6,1.1,0.3,1.8s-0.1,0.7-0.1,0.7s0.7-2.1,0.7-2.1"/>
			<path class="st32" d="M817.3,214.9l0.2,0.1c0,0,0.3,5,1.6,5.7l-0.6-0.1C817.5,218.9,817.1,216.9,817.3,214.9z"/>
			<path id="corps_guitare" class="st33" d="M827.9,213.9c0,0,7.6-1.5,10.7,9.5c0,0-5.4-0.7-6.3-0.2c-0.8-0.1-1.6,0-2.4,0.1
				c-2-0.5-4-0.7-6.1-0.5c-1.3-1.1-2.9-1.8-4.6-2c0,0-1.6-0.9-1.6-5.4C817.6,215.3,817.2,204.9,827.9,213.9z"/>
			<path class="st32" d="M823.6,214.5c1.9-0.5,3.8,0.4,4.7,2.1c0,0,2.8,4.8-0.9,4.1c0,0-2.1-0.1-3.8-3L823.6,214.5z"/>
			<path class="st34" d="M825,215.6c0.8-0.2,2.5-0.2,3.3,2.6c0.1,0.3,0.1,0.6,0,0.9c-0.2,0.7-0.9,1.4-3.3-0.9
				c-0.5-0.5-0.7-1.2-0.6-1.9C824.4,215.8,824.7,215.6,825,215.6z"/>
			<path class="st35" d="M805,206.1l20,9c-0.1,0.2-0.2,0.5-0.2,0.8c-0.8,0.4,0,1,0,1c0,0.4,0.1,0.8,0.3,1.2l-19.2-8.3l-3.3-1.6
				L805,206.1z"/>
			<path class="st33" d="M815.4,220.9c0,0-1.1-1.8-0.3-2.9l2.3-3.1c0,0,0.1,4.3,1.4,5.8C818.7,220.7,815.9,220.8,815.4,220.9z"/>
			<path class="st36" d="M815.2,217.8c0,0-1.6-0.7-1.8-1.4c0,0,1.7-1.1,1.4-1.6c0,0-1.8-2.5-9.5-4.7l0.1-0.5l12.1,5.1L815.2,217.8z"
				/>
			<path class="st37" d="M808.8,219.9l2.1,0.7c0,0,2.1-0.2,2-0.2c0.5,0.2,1,0.4,1.5,0.6c0.3,0.2,5-1.9,9.3,1.6c0,0,4.6-0.4,6.1,0.5
				c0,0,9-0.5,10.1,0.1s1.4,7.6-0.8,9l-36-7.6l1.2-5.7c0,0,0.6-0.1,0.7,0.3S805,218.1,808.8,219.9z"/>
			<line class="st38" x1="804.9" y1="206.2" x2="834.5" y2="219.5"/>
			<line class="st38" x1="804.5" y1="206.6" x2="834.5" y2="220"/>
			<line class="st38" x1="804.2" y1="206.8" x2="834.5" y2="220.4"/>
			<line class="st38" x1="803.8" y1="207.2" x2="834.5" y2="220.9"/>
			<line class="st38" x1="803.2" y1="207.6" x2="834.5" y2="221.3"/>
			<line class="st38" x1="802.6" y1="207.9" x2="834.4" y2="221.6"/>
			<polygon class="st34" points="834.6,219.6 834.5,221.7 834.2,221.6 834.4,219.4 			"/>
			<polygon class="st34" points="834.5,221.7 834.5,221.8 834.2,221.8 834.2,221.6 			"/>
			<polygon class="st34" points="834.2,221.8 834.4,219.5 834.4,219.4 834.2,221.6 			"/>
			<path class="st25" d="M833.5,215.2l0.4-0.2c1.2,0.2,2,1.1,2.2,2.3l-0.4,0.1c-0.3,0.1-0.6,0.1-0.9,0.1c-0.3,0.1-0.5,0.3-0.6,0.6
				c-0.3,1.5-1.1,1.8-1.1,1.8c-2.9,0.5-2.4-0.3-2.4-0.3c-1.5-0.1-1.2-0.6-1.2-0.6c0-0.2,0.7-0.2,0.7-0.2c-1.7,0-1.1-0.7-1.1-0.7
				c0.2-0.1,0.4-0.2,0.7-0.2c-1.9,0.3-1.2-0.4-1.2-0.4c0.7-0.4,1.5-0.8,2.3-1c0.1-0.3-0.1-0.1-0.1-0.1c-0.3,0.2-0.7,0.2-1,0.1
				c-1.2,1.1-1.5,0.2-1.5,0.2s0.2-0.4,0.5-0.4c0,0,0-0.6,1.4-0.8c0.9-0.1,1.8-0.1,2.7,0.1C833.1,215.3,833.3,215.2,833.5,215.2"/>
			<polygon class="st4" points="802.6,208.2 805,206.2 805.2,206.3 802.7,208.3 			"/>
			<path class="st5" d="M805,206.2l0.2,0.1l-2.4,2l-0.1-0.1L805,206.2 M805,206.2l-2.5,2.1l0.2,0.1l2.5-2.1L805,206.2z"/>
			
				<ellipse transform="matrix(0.5774 -0.8164 0.8164 0.5774 172.1059 739.554)" class="st39" cx="800.5" cy="203.5" rx="0.4" ry="0.4"/>
			<polygon class="st39" points="800.4,203.8 800.2,204 800,203.9 800.2,203.6 			"/>
			
				<ellipse transform="matrix(0.5774 -0.8164 0.8164 0.5774 172.1645 740.8536)" class="st39" cx="801.8" cy="204.1" rx="0.4" ry="0.4"/>
			<polygon class="st39" points="801.7,204.4 801.5,204.6 801.3,204.5 801.5,204.2 			"/>
			
				<ellipse transform="matrix(0.5814 -0.8136 0.8136 0.5814 168.0634 741.6229)" class="st39" cx="804.8" cy="207.5" rx="0.4" ry="0.4"/>
			<polygon class="st39" points="802.7,205 802.5,205.3 802.3,205.1 802.5,204.9 			"/>
			
				<ellipse transform="matrix(0.6276 -0.7786 0.7786 0.6276 136.7297 697.6279)" class="st39" cx="797.5" cy="205.9" rx="0.4" ry="0.4"/>
			<polygon class="st39" points="797.6,205.6 797.8,205.4 798,205.6 797.8,205.8 			"/>
			
				<ellipse transform="matrix(0.6276 -0.7786 0.7786 0.6276 136.5343 698.8299)" class="st39" cx="798.7" cy="206.7" rx="0.4" ry="0.4"/>
			<polygon class="st39" points="798.8,206.4 799,206.2 799.2,206.4 799,206.6 			"/>
			
				<ellipse transform="matrix(0.6318 -0.7752 0.7752 0.6318 132.0623 699.203)" class="st39" cx="802" cy="210.6" rx="0.4" ry="0.4"/>
			<polygon class="st39" points="800,207.2 800.2,207 800.5,207.2 800.2,207.4 			"/>
			<polygon class="st35" points="802.5,208.2 801.5,207.9 797.2,205 799.1,203.4 804,205.7 804.5,206.5 			"/>
			
				<ellipse transform="matrix(1 -2.094371e-03 2.094371e-03 1 -0.4307 1.6779)" class="st40" cx="801" cy="206.5" rx="0.2" ry="0.2"/>
			
				<ellipse transform="matrix(1 -2.094416e-03 2.094416e-03 1 -0.4289 1.6801)" class="st40" cx="802" cy="205.6" rx="0.2" ry="0.2"/>
			
				<ellipse transform="matrix(1 -2.094416e-03 2.094416e-03 1 -0.4292 1.6755)" class="st40" cx="799.8" cy="205.8" rx="0.2" ry="0.2"/>
			<circle class="st40" cx="800.4" cy="206.7" r="0.2"/>
			
				<ellipse transform="matrix(1 -2.094443e-03 2.094443e-03 1 -0.4263 1.6755)" class="st40" cx="799.7" cy="204.4" rx="0.2" ry="0.2"/>
			
				<ellipse transform="matrix(1 -2.094413e-03 2.094413e-03 1 -0.4279 1.6734)" class="st40" cx="798.7" cy="205.1" rx="0.2" ry="0.2"/>
			<line class="st38" x1="802.1" y1="205.7" x2="804.7" y2="206.5"/>
			<line class="st38" x1="801" y1="205.1" x2="804.7" y2="206.8"/>
			<line class="st38" x1="799.7" y1="204.4" x2="804.4" y2="207"/>
			<line class="st38" x1="798.8" y1="205.1" x2="803.9" y2="207.3"/>
			<line class="st38" x1="799.8" y1="205.7" x2="803.4" y2="207.7"/>
			<line class="st38" x1="801" y1="206.5" x2="803.1" y2="208.1"/>
		</g>
	</g>
	<g id="Calque_2-3">
		<g id="Photo">
			<g id="Fille">
				<g id="Polaroid-2-2">
					<g id="image" transform="matrix(0.09, 0.02, -0.02, 0.09, 884.25, 195.54)" class="st41">
						
							<image style="overflow:visible;enable-background:new    ;" width="570" height="746" id="image-2" xlink:href="6EB363362727B31A.png"  transform="matrix(9.000000e-02 2.000000e-02 -2.000000e-02 9.000000e-02 884.25 195.54)">
						</image>
					</g>
					<path class="st4" d="M881.2,255.6c-0.6-0.1-1-0.7-0.9-1.3c0,0,0,0,0,0l0,0l9.2-51.2c0.1-0.7,0.8-1.1,1.5-1l0,0l35.6,6.3
						c0.6,0.1,1,0.7,0.9,1.3l-9.2,51.4c-0.1,0.6-0.7,1-1.3,0.9L881.2,255.6z"/>
					<path class="st5" d="M926.6,208.4c0.6,0.1,1,0.6,0.9,1.2l0,0l-9.2,51.4c-0.1,0.6-0.6,1-1.2,0.9l0,0l-35.8-6.3
						c-0.6-0.1-1-0.6-0.9-1.2l0,0l9.2-51.3c0.1-0.7,0.8-1.1,1.4-1l0,0L926.6,208.4 M926.6,208.3l-35.6-6.4c-0.7-0.1-1.4,0.3-1.5,1.1
						l0,0l-9.2,51.2c-0.1,0.6,0.3,1.2,0.9,1.3c0,0,0,0,0,0l0,0l35.8,6.3c0.6,0.1,1.2-0.3,1.3-1c0,0,0,0,0,0l9.2-51.4
						c0.1-0.6-0.3-1.2-0.9-1.3L926.6,208.3z"/>
					<polygon class="st6" points="884.6,243.2 891.2,206.4 924.7,212.3 918.1,249.2 					"/>
					<path class="st5" d="M924.6,212.3l-6.6,36.8l-33.4-5.9l6.6-36.7L924.6,212.3 M924.7,212.3l-33.6-6l-6.6,36.9l33.6,6
						L924.7,212.3z"/>
					<path id="Scotch-3" class="st7" d="M897.7,199.4l23.4,4.1c0,0,1.1,1.5-0.6,3.4l1,1.7l-1.3,0.9l-24.6-4.4l1-0.9l-0.4-0.1
						l1.3-1.7l-1-2.1l0.6-0.2l-0.1-0.2L897.7,199.4z"/>
					<path class="st5" d="M924.6,212.3l-6.6,36.7l-33.4-5.9l6.6-36.7L924.6,212.3 M924.7,212.3l-33.6-5.9l-6.6,36.9l33.6,6
						L924.7,212.3z"/>
				</g>
				<path id="Cheveux-2" d="M913.9,217.7c0,0,1.3-0.6,0.6-3.1c0,0,0.5,0,0.3-0.1c0,0,0.2,0.2,0.3-0.1c0,0,2,1.5,4.7-1.2
					c0.6-0.5,1.4-0.8,2.2-0.6c0,0-0.9-0.3-1.2-0.2c0,0,1.2-0.5,1.5-0.4c0,0-1.4-0.4-1.5-0.2c0,0,2-1.4,1.8-0.9c0,0-0.2-0.3-0.3-0.1
					c0,0,1.1-1,1.1-0.6c0,0-1-0.4-1.2,0c0,0,1.4-1.5,1.5-1.4s-0.8,0-0.8,0l0.6-0.2c0,0-1.5-2.7-3.5-0.8c0,0-1.3,1.8-1.7,1.7
					c0,0-0.5-0.6-0.8-0.4c0,0,0.5,0.8,0.1,1.2c-0.6,0.7-1.4,1.3-2.3,1.7c0,0-1,0.8-0.5,1.6c0,0-0.2-0.2-0.3,0.1c0,0-0.3-0.2-0.3,0.1
					c-0.8-1-2.3-1.2-3.3-0.4l-1.2,1.8c0.2,0.1,0.4,0.2,0.7,0.3c0.2,0.2,0.4,0.3,0.7,0.2c0,0,0.7-0.2,0.8,0c0,0,0.2-0.2,0.6,1.8
					L913.9,217.7z"/>
				<polygon class="st42" points="890.5,227.1 890.7,226 924.1,232.1 923.9,233.2 				"/>
				<polygon class="st43" points="887.8,224.8 888,223.7 921.6,229.7 921.4,230.7 				"/>
				<polygon class="st43" points="887.5,226.6 887.6,226 921.2,232 921.1,232.5 				"/>
				<polygon class="st44" points="884.5,243.2 886.3,233.5 919.9,238.8 918.1,249.2 				"/>
				<path class="st45" d="M894.1,221.4c0,0,3.3-3.3,8.3,1.8c0,0,0.9,0.7-1.7,2.9s-2.2,2.9-2.2,2.9s2.3,0,4.1,4.3
					c0.4,1,0.4,2.1,0,3.1c0,0,0.3,5.3,0.6,5.6c0,0-0.3,0.9-0.5,0.9s-3.7,2.7-7.1-0.3c-0.9-1.7-1.5-3.4-1.9-5.2c0,0-0.6-3.1-1.4-3.9
					c0,0-1.9-2.4-1.3-4.6C891.6,226.2,892.6,223.7,894.1,221.4z"/>
				<path d="M898.2,220.6c0,0,1-1.5,1.4-1.5c0.2,0,0.4,0,0.6,0.1c0,0,0.4,0.1,0.4,0.3s-1.2,1.3-1.2,1.4S898.2,220.6,898.2,220.6z"/>
				<path d="M899.2,219.3c0,0-0.2-0.6,0.4-0.6c0,0-0.3,0.4-0.1,0.4S899.2,219.3,899.2,219.3z"/>
				<path d="M900.4,219.6c0,0,0.2-0.2,0.2-0.3h0.1C900.7,219.3,900.9,219.5,900.4,219.6C900.1,219.9,900.4,219.6,900.4,219.6z"/>
				<path d="M899.5,218.7c0,0-0.2-0.6,0.3-0.4c0,0,0.4,0.2,0.4,0.3s0.8,0.2,0.7,0.5c0,0,0.3-0.6,0.4-0.5s-0.5,0.9-0.6,0.8
					C900.3,219.2,899.9,219,899.5,218.7z"/>
				<path d="M899.5,218.6c0,0,0.1-0.9,0.4-0.9c0,0,0-0.3,0.2-0.1c0,0,0.2,0.2-0.1,0.2c0,0-0.5,0.6-0.3,0.7S899.5,218.6,899.5,218.6z
					"/>
				<path class="st46" d="M893.2,229.7h0.3c0.2,0,0.4,0,0.5,0.2s1.2-0.4,1.1,0s0.7,2.1,0.1,2.1c-0.2,0-0.4,0-0.5-0.1
					c-0.3-0.1-0.7-0.1-1-0.1c-0.3,0-0.5-0.2-0.6-0.8c-0.1-1.3,0.1-0.8,0.1-0.8S892.7,229.6,893.2,229.7z"/>
				<path class="st46" d="M893.2,227.3c-0.1,0-0.2-0.1-0.3-0.2c0,0,0-0.1,0-0.1c0.6-0.8,1.9-2.6,1.8-1.7s-0.1,1.4-0.2,1.7
					c0,0.1-0.1,0.2-0.2,0.2L893.2,227.3z"/>
				<path d="M895.7,234.6c0,0-1.1,0.3-0.6,0.4s1.9-0.2,1.3-0.3"/>
				<path class="st46" d="M896.4,237c-0.7,0.6-0.9,1.6-0.3,2.4c0,0.1,0.1,0.1,0.2,0.2c1.2,1.6,0.8-0.4,0.8-0.4S896.9,237,896.4,237z
					"/>
				<path class="st46" d="M900.9,234.2c0,0-1.8-0.4,0.7,6.5C901.6,240.6,902.4,240.4,900.9,234.2z"/>
				<path class="st46" d="M896.7,221.9c0-0.1,0-0.2-0.1-0.3c-0.1-0.1-0.2-0.1-0.2,0c-0.4,0.4-0.8,0.9-1.2,1.4
					C894.9,223.5,895.9,223.9,896.7,221.9z"/>
				<path class="st47" d="M911.8,218.6c-0.1,0.4,1.8-0.1,1.8-0.1s0.3-0.9,0.2-0.9l-1.3-0.2c0,0-0.5-1.9-0.7-1.9h-0.2
					c0,0-0.3-1-0.7,0.1c0,0-0.5,0-0.5-0.2c0,0-0.3,0.1-0.3,0s-1.3,1.9-0.1,2.8c0,0,0.5,1.6,1.8,0.5"/>
				<path d="M911.7,217.7c0.1,0.3,0.1,0.6,0,0.9 M911.7,218.6c0.1-0.3,0.1-0.6,0-0.9c0,0-0.1,0-0.1,0L911.7,218.6z"/>
				<path d="M910.9,217c0,0.2-0.1,0.3-0.1,0.4c-0.1,0.2-0.2,0.5-0.4,0.6c-0.1,0.1-0.2,0.1-0.3,0c0,0-0.1,0,0,0.1
					c0.5,0.3,0.8-0.6,0.9-0.9L910.9,217L910.9,217z"/>
				<path class="st48" d="M910.4,218.2c0,0,0.3,0.3,0.2,0.4c-0.1,0-0.2,0-0.3,0l-0.3-0.4C910,218.2,910.4,218.3,910.4,218.2z"/>
				<path id="oreille" class="st3" d="M910.9,215.6c0,0,0.2-0.3,0.4-0.4c0,0,0.3-0.1,0.2,0.4c0,0-0.1,1.8-0.5,1.1"/>
				<path id="oreille-2" class="st3" d="M911.1,215.7c0,0,0.2-0.5,0.2,0c0,0,0,1-0.2,0.8"/>
				<path class="st47" d="M915.6,231.3c0,0-0.9-0.6-1.3,0c0,0-0.2,0.1,0.9,0.5c0.2,0.1,0.4,0.2,0.6,0.3c0.3,0.1,0.5,0.2,0.7,0.5
					c0,0,0.4,0.3,0.2-0.3C916.5,231.8,916.1,231.4,915.6,231.3z"/>
				<path class="st47" d="M916.8,230.5c0,0,1.4-0.4,1.2-0.1c0,0,0.8,0,0.6,0.3c0,0,0.6,0.1,0.4,0.5c0,0,0.3,0.6-0.4,0.4
					c-0.4,0.1-0.7,0.1-1.1,0.1c0,0-1-0.1-0.9-0.1L916.8,230.5z"/>
				<path class="st49" d="M914.5,230.1c0,0-0.1-0.6-0.2-0.6c-0.3,0-0.6,0-0.8,0.1c0,0.3,0.1,0.5,0.1,0.8
					C913.6,230.4,914.4,230.3,914.5,230.1z"/>
				<path class="st50" d="M914.5,229.6c0.1,0.1,0.1,0.2,0.1,0.4c0.5,0.1,0.9,0.2,1.4,0.4l0.7,0.2l0.1,0.2l-0.1,0.4
					c0,0-0.1,0.4-0.2,0.5c-0.3-0.2-0.7-0.3-1-0.5c0,0-0.9-0.5-1.2,0c-0.4-0.1-0.7-0.4-0.8-0.8c0.2-0.1,0.5-0.2,0.8-0.2
					c0-0.2,0-0.4-0.1-0.7C914.3,229.6,914.4,229.5,914.5,229.6z"/>
				<path class="st25" d="M910.5,215.1c0,0,0.6-0.4,0.6-0.4v-0.3l0.2-0.2l0.4-0.3c0.1-0.1,0.3-0.8-1,0.2l-0.1,0.1
					C910.6,214.1,910.3,215.1,910.5,215.1z"/>
				<path class="st51" d="M908.5,213.4c0,0,0.3-0.9,0.4-0.4S908.5,213.4,908.5,213.4z"/>
				<path id="gant" class="st52" d="M910,215.6c0.4-0.4,0.6-1,0.7-1.6c-0.1-0.2-0.1-0.4,0-0.6c0,0-0.1-0.9-1.9-0.3
					c0,0-1.4,1.1-0.7,2.4C908.2,215.4,908.8,214.8,910,215.6z"/>
				<path id="poignet" class="st53" d="M910,215.6c0,0-0.3,0.5-0.2,0.5c-0.4-0.5-1.2-0.6-1.7-0.2c0-0.2,0-0.4,0.1-0.5
					C908.8,215,909.5,215.1,910,215.6z"/>
				<path id="ombre" class="st54" d="M908.8,213.4c0.1-0.1,0.2-0.1,0.3,0c0,0,0.1,0.1,0.1,0.1c0.2,0,0.5,0,0.7,0.1
					c0.2,0.1-0.3,0.4-0.3,0.4s0.8,0.5,0.5,0.6c-0.3,0-0.5,0-0.8-0.1c0,0,0,0.3-0.2,0.2c-0.1,0-0.2-0.1-0.3-0.2
					c-0.1,0.1-0.3,0.1-0.4,0.1h-0.3C908.1,214.7,908.3,213.6,908.8,213.4z"/>
				<path class="st47" d="M914.7,220.5c-1.3-0.4-1.6,0-1.6,0c-0.8,1.3,1.8,2.7,1.8,2.7l1.7-3.5c0.4-0.7,0.1-1.6-0.7-2
					c-0.2-0.1-0.3-0.1-0.5-0.1c-0.8,0-1.5,0.3-2.2,0.7c-0.4,0.2-0.8,0.3-1.2,0.2h-1.8c-0.2-0.3-0.4-0.7-0.7-1
					c-0.2-0.5-0.1-1.1,0.1-1.6c-0.4-0.5-1.1-0.6-1.6-0.2l-0.3,0.9c0,0-0.3,0.8-0.4,1c0,0-0.2,0.9-0.3,1.2c-0.1,0.3-0.1,0.7-0.1,1
					c0.2,0.5,0.6,0.9,1.1,0.9c0.9,0,1.8,0,2.6-0.2c0,0,2.2-0.4,2.4-0.4C913.1,220.3,914.6,220.3,914.7,220.5z"/>
				<path class="st55" d="M913.2,220.6c0,0,1.2-0.3,1.5,0.1c0,0,0.6,0,0.5,0.3c-0.2,0.5-0.4,1-0.5,1.6c0.1,0.1-1-0.1-1.1-0.5
					C913.6,222,912.8,221,913.2,220.6z"/>
				<path class="st55" d="M907.1,220.1c0.2-0.2,0.5-0.3,0.7-0.3c0,0,0.6-2.7,0.9-0.7c0,0,1,0.2,1-0.2c0.1-0.1,0.3-0.2,0.5-0.2
					c0.8-0.1,1.7-0.1,2.5,0c0,0,1.1-0.7,1.4-0.9c0,0,2.2-0.9,2.2,1.2c0,0-0.1,1.2-1.2,0.3c-0.7,0-1.3,0-2-0.2c0,0-1.3,0.8-1.5,0.8
					c0,0,0.4,0.3,0.3,0.3s-3.5,0.6-3.7,0.4C907.8,220.8,907.3,220.5,907.1,220.1z"/>
				<path class="st47" d="M914.3,224.4c0,0,0.5,2,0.5,2.1s0,0.9,0,1.1s-0.2,1.8-0.2,1.9l-1.1,0.3c-0.3-0.9-0.6-1.8-0.8-2.7
					C912.7,227.1,914,224.4,914.3,224.4z"/>
				<path class="st55" d="M914,225.3c0,0-0.3,2.9-1.1,2.3l0,0l0.5,2l0,0l0.9-0.3l0,0c0.1-1.5,0.1-2.9,0-4.4
					C914.2,225,914.1,225.1,914,225.3z"/>
				<path class="st47" d="M909.2,221.1c0,0-1.3,1.1,0.9,0H909.2z"/>
				<path class="st47" d="M910.8,229.8c0.3-0.8,0.7-1.4,1.3-2c0.7-0.9,1.3-1.8,1.8-2.7c-0.1-0.2-0.2-1.2-4.3-1.9
					c-0.6,0-1.2,0-1.8,0.1c0,0.5-0.1,1.1-0.2,1.6c0,0-0.9,1.5-1.5,1.4c0,0.5,0.2,0.9,0.6,1.1c0.5,0.5,1.1,0.9,1.8,1.2
					C908.6,228.5,910.1,230.1,910.8,229.8z"/>
				<path d="M907.7,226c0,0,0.8-0.5-0.1,0.4"/>
				<path class="st56" d="M913,220.6c0,0-0.8,1.1,1.8,2.6c-0.3,0.6-0.6,1.2-1,1.8c-1-1-2.2-1.6-3.6-1.8c-0.8-0.1-1.6-0.1-2.4,0
					c0,0-1-0.8,0.6-2l0.3-0.2h0.4c0,0-1.3,1.3,0.9,0C911,220.8,912,220.6,913,220.6z"/>
				<path class="st55" d="M911.5,223.7c-0.1,0.2-0.3,0.3-0.5,0.4c-0.4,0.1-0.7,0.6-0.6,1c0.1,0.5-0.8,1.1-0.8,1.1
					c0.5-0.2,1-0.4,1.4-0.7c0-0.1-0.1-0.7-0.1-0.7s0.3-0.5,0.5-0.4s-0.3,0.5-0.3,0.5s0.1,0.7,0.2,0.7s-1.2,0.8-1.1,1.4
					c0.1,0.3,0,0.6-0.1,0.8l-0.5,0.8c0,0,0.5,0.4,0.5,0.4s0.6-0.6,0.6-0.9s0.3-1.1,0.6-1.1s0.5-1.1,0.5-1.1c0.3-0.1,0.6-0.2,0.9-0.3
					c0-0.1,0.6-0.4,0.4-0.9C912.6,224.3,912,223.9,911.5,223.7z"/>
				<path class="st55" d="M912.8,226.2c0,0-0.2,0.9-0.6,0.8s-0.5,0.8-0.5,0.8c0.3-0.1,0.5-0.3,0.7-0.5c0-0.1,0.5-0.9,0.5-1"/>
				<path class="st57" d="M909.3,224.2c0,0-0.4,1.6-0.6,1.6S908.6,224.7,909.3,224.2z"/>
				<path class="st55" d="M908.4,224.2c0,0-0.3,0.6-0.2,0.7s-0.3,0.2-0.3,0.3s0.7-0.2,0.6-0.2S908.8,224.2,908.4,224.2z"/>
				<path class="st47" d="M906,232.7c0,0.3-0.1,0.7-0.2,1c-0.3,0.7-0.4,1.4-0.5,2.1c-0.1,0.6-0.2,1.1-0.4,1.7
					c-0.2,0.5-0.3,1-0.4,1.6c-0.2,0.7-0.2,1.4,0.1,2.1c0,0-0.1,0.4,0.1,0.5c-0.2,0.7-0.3,1.4-0.3,2.1c0,1.3,0,2.6,0.2,3.8
					c0.1,0.2,0.1,0.4,0.1,0.6c0,0,0.2,2.4,0.2,2.7c0,0.2,0,0.5-0.1,0.7c-0.1,0.4-0.2,0.8-0.3,1.1c0,0,0.1,0.2,0.2,0.2
					c-0.2,0.9-0.6,1.8-1.1,2.6c0,0-1,1.2-1.2,1.2c0,0-0.8-0.1-0.8,0.3c0,0.3,0.3,0.6,0.6,0.6c0,0,0,0,0,0l0,0
					c0.2,0.1,0.4,0.1,0.5,0.1c0,0,0.2,0.3,0.5,0.2c0,0,0.1,0.1,0.4,0.1c0,0,0.8,0.5,1.2-0.2c0-0.3,0.2-0.5,0.4-0.7
					c0,0,0.7-0.9,0.7-1.1c0,0,0.5-1.2,0.7-1.2c0.4-0.5,0.5-1.1,0.4-1.7l-0.2-0.7c0-0.3,0-0.7,0-1l0.1-1.9l0.5-2.7
					c0.3-0.8,0.5-1.7,0.5-2.6c0-0.7-0.1-1.3-0.4-1.9c0.1-0.3,0.1-0.7,0-1c0,0,0.7-2.2,0.7-2.3s1.2-3.9,1.2-3.9
					c0.2-0.7,0.3-1.4,0.4-2.1l0.2-1.2l-3.6-0.4L906,232.7z"/>
				<path class="st47" d="M904.5,253.3c0,0,0.3-0.6,0.2-0.7"/>
				<path class="st47" d="M897.3,227.7c-0.2-0.1,0-0.8,0-0.8c0-0.3,0.6-0.4,0.6-0.4l2-0.5c0.8-0.1,1.7-0.2,2.5-0.1
					c0,1.2,0,2.4,0.2,3.6c0,0,0.1,0.3-0.6-0.1c-0.5-0.5-1-0.8-1.7-1.1c-0.3,0-0.6-0.1-0.9-0.3c-0.4-0.1-0.9-0.1-1.4-0.1l1.5,0.4
					c0,0,0,0.4-0.5,0.9C899.1,229.2,897.5,228.6,897.3,227.7z"/>
				<path class="st55" d="M897.7,228.2c0,0,0.3,0,0.3-0.1s0.9,0.9,1.2,0.7s-0.1,0.2-0.1,0.2S897.7,228.4,897.7,228.2z"/>
				<path class="st55" d="M899.6,226.7c0.1,0,0.2,0,0.4,0c0.6,0.2,1.3,0.3,1.9,0.2c0,0.2-0.3,0.3-0.5,0.3c0,0,0,0,0,0l0,0
					c-0.3,0-0.7,0-1-0.2C900.4,227,899.2,226.9,899.6,226.7z"/>
				<path class="st55" d="M902,229c0,0,0.4-0.2-0.5-0.6c-0.5-0.2-1-0.4-1.5-0.6l-1.3-0.2c0,0-0.5,0-0.5-0.2s-0.1,0.3-0.1,0.3l1,0.2
					C899.2,227.8,902,228.7,902,229z"/>
				<path class="st55" d="M897.6,227c0,0-0.3,0.4,0,0.6s0.3,0,0.3,0l0.1-0.1L897.6,227z"/>
				<path class="st55" d="M908,232.5c-0.6,1.7-1.1,3.4-1.5,5.1c-0.4,0.9-0.6,2-0.5,3c0,0,1.3-2.3,1.2-2.8c0,0,0.7-2.4,0.5-2.8
					c0.3-0.8,0.6-1.5,0.8-2.3C908.3,232.8,908,232.5,908,232.5z"/>
				<path class="st55" d="M905.7,241.9c0,0-0.5,1.9-0.3,1.9S906.2,242.3,905.7,241.9z"/>
				<path class="st55" d="M903.4,256.5c0.6-0.9,1.1-1.9,1.5-2.9c-0.1-0.1-0.2-0.5,0.2-1.3s0.8-7.1,1-7.1s-0.4-2-0.4-2
					s0.2-0.9,0.3-0.4c0.5,0.8,0.7,1.9,0.3,2.8c-0.5,1.4,0.1,1.9-0.2,4s-0.2,2.9-0.5,2.9s0,1.8,0.6,0.9c0,0-0.1,0.8-0.6,0.7
					C905.8,254,904.2,257.5,903.4,256.5z"/>
				<path class="st58" d="M906.2,231.3c0,0,1.8-0.6,2.2,0c0,0-1.3-0.7-1.2-0.8c0.2-0.2,0.4-0.3,0.7-0.2c0,0,0.1-0.6,0.5,0.1
					c0,0,0.3-0.9,1.2,0.8c0,0,0.2-0.1,0.4,0.2v0.6c0,0-0.4-0.4-0.5-0.2c-0.1,0.3-0.3,0.6-0.4,0.9c0,0-1.2-0.5-1.1-0.8
					c0,0-0.1-0.4,0.1-0.4C908.1,231.6,906,231.6,906.2,231.3z"/>
				<path class="st58" d="M906.2,229.1c0,0,0.2,0.7-0.1,0.7s-0.3,0.2-0.3,0.2s0.8,0.1,1,0s0.4-0.2,0.6-0.4c0,0,0.3-0.2,0.2-0.2
					S906.2,228.9,906.2,229.1z"/>
				<path class="st58" d="M905.3,230.4c0,0,0.4-0.4,0.4-0.1s-0.4,0.4-0.4,0.4s-0.8-0.2-0.6-0.4s0.2-0.1,0.2-0.1s-0.1-0.9,0.5,0
					C905.4,230.3,905.4,230.4,905.3,230.4L905.3,230.4z"/>
				<path class="st58" d="M904.2,226.8c0,0-1.2,0.1-1,1.2c0,0-0.1,0.3,0,0.3h0.1C903.3,228.2,903.8,226.6,904.2,226.8z"/>
				<path class="st58" d="M903.1,228.7c0,0,0.5,1.3,0.9,1.5c0.2,0.1,0.5,0,0.6-0.2c0,0,0,0,0,0l0,0c0,0-1.1-0.6-1-0.8
					C903.6,229.1,903.4,228.3,903.1,228.7z"/>
				<path class="st58" d="M910.7,230c-0.3-0.2-0.3-0.1-0.4,0.1c-0.2,0.3-0.1,0.7,0.1,0.9c0.2,0.2,0.3-0.1,0.5-0.4
					c0-0.1,0.2-0.6,0.1-0.6L910.7,230z"/>
				<path id="haut" class="st59" d="M906,226c-0.1,0.7,0.3,1.4,1,1.6c0.6,0.5,1.4,0.8,2.1,1c0.4,0.1,0.8,0.4,1.1,0.8l0.8,0.5
					c0,0.5-0.2,0.9-0.5,1.3c0,0-1.1-0.8-1.1-0.9c-0.5-0.4-1-0.7-1.6-0.9c-0.8-0.3-1.6-0.7-2.3-1.3c-0.6-0.5-0.9-1.2-0.8-2
					C904.7,226.1,906.1,225.4,906,226z"/>
				<path id="bas" class="st59" d="M910.4,231.3c0,0-0.2,1.9-0.5,1.9c-0.1-0.1-0.2-0.1-0.3-0.1c-0.1,0,0.2-1,0.1-1
					c-0.2,0.4-0.4,0.7-0.7,1.1c0,0-0.2-0.7-1.6-0.7c0,0-1.5,0.4-1.6,0.1l0.1-0.9c0,0,0.1-0.6-1.7-1c-0.5-0.3-1-0.5-1.5-0.7
					c-0.4-0.6-0.5-1.3-0.5-2c0.1-0.6,0.1-1.3,0.1-1.9c0.8-0.2,1.6-0.1,2.4,0.2c0,0-0.1,1.5,0.4,1.7c0.8,0.6,1.7,1,2.6,1.3
					c0.6,0.3,1.1,0.6,1.6,1L910.4,231.3z"/>
			</g>
		</g>
	</g>
	<g id="Calque_2-4">
		<g id="Polaroid-3">
			<g id="Polaroid-2-3">
				
					<image style="overflow:visible;opacity:0.25;enable-background:new    ;" width="570" height="742" xlink:href="6EB363362727B31B.png"  transform="matrix(9.000000e-02 0 0 9.000000e-02 950.75 207.03)">
				</image>
				<path class="st4" d="M958.3,266c-0.6,0-1.1-0.5-1.1-1.1l0,0v-51.6c0-0.7,0.6-1.3,1.3-1.3c0,0,0,0,0,0h36c0.6,0,1.1,0.5,1.1,1.1
					l0,0v51.8c0,0.6-0.5,1.1-1.1,1.1L958.3,266z"/>
				<path class="st5" d="M994.4,212c0.6,0,1.1,0.5,1.1,1c0,0,0,0,0,0v51.8c0,0.6-0.5,1.1-1.1,1.1c0,0,0,0,0,0h-36.1
					c-0.6,0-1.1-0.5-1.1-1c0,0,0,0,0,0v-51.6c0-0.7,0.6-1.2,1.2-1.2c0,0,0,0,0,0L994.4,212 M994.5,211.9h-36c-0.7,0-1.3,0.6-1.3,1.3
					c0,0,0,0,0,0v51.6c0,0.6,0.5,1.2,1.1,1.2c0,0,0,0,0,0h36.2c0.6,0,1.2-0.5,1.2-1.1c0,0,0,0,0,0l0,0v-51.8
					C995.6,212.5,995.1,211.9,994.5,211.9C994.5,211.9,994.5,211.9,994.5,211.9L994.5,211.9L994.5,211.9z"/>
				<rect x="959.4" y="216.2" class="st6" width="33.8" height="37.1"/>
				<path class="st5" d="M993.2,216.3v37h-33.8v-37H993.2 M993.3,216.2h-34v37.2h34V216.2z"/>
				<path id="Scotch-4" class="st7" d="M964.6,208.3h23.6c0,0,1.4,1.2,0,3.4l1.3,1.5l-1.1,1.1h-24.9l0.9-1.1H964l0.9-1.9l-1.4-1.9
					l0.6-0.3L964,209L964.6,208.3z"/>
				<path class="st5" d="M993.2,216.3v37h-33.8v-37H993.2 M993.3,216.2h-34v37.2h34V216.2z"/>
			</g>
		</g>
		<g id="Bibimbap">
			<path class="st60" d="M993.6,244.9c0,0,2,2.3-2.5,4.8c-3.1,1.6-6.6,2.6-10.1,3c0,0-9.8,0.9-14.3-1s-6.5-2.7-6.7-3.6
				s-1.1-0.7-0.9-3.1S993.6,244.9,993.6,244.9z"/>
			<g id="Bouffe">
				<path id="fond_bol_" class="st61" d="M959,234.3l35.2,0.3c0,0,1.8-5.9-7.1-7.6c0,0-13-3.3-18.8-1.3
					C968.2,225.8,958.1,228.8,959,234.3z"/>
				<path class="st62" d="M980.2,230.3l3.9-1.5l-0.4-0.5c0,0,1.2-2.2-0.9,0.1c-0.4-0.7-1.1-1-1.8-1c0,0-1.1-2.1-2.4,0
					c0,0-1.8-0.4-2.5,0.1c0,0,0.4-2.9-0.8,0.1c0,0-1.5-1.1-2.7-0.4c-0.4,0.4-1,0.5-1.5,0.4h-0.3c0,0-1-1.4-0.6,0.3l-0.1,0.8l2.7,2.3
					L980.2,230.3z"/>
				<g id="poivron">
					<path class="st63" d="M980.3,230c0.1-0.4,0.5-0.7,0.9-0.6c0.3-0.6,1.1-0.9,1.8-0.7c0,0,2.9-2.6,6.5,1.9c0,0,1.6,0.6,1.3,1.9
						c-0.8-0.1-1.5-0.1-2.3,0c-1.3,0-2.7-0.1-4-0.3c0,0-0.8-0.4-2.1,0.8c0,0,0.1-0.8-0.7-0.3L980.3,230z"/>
					<path class="st64" d="M984.4,230.3c0,0,0.3,1.1,0.6,1.1s0.7-0.2,0.3-0.6S984.8,229.9,984.4,230.3z"/>
					<path class="st64" d="M986.7,229.3c0,0-0.4-0.9-0.7-0.2S986.9,230,986.7,229.3z"/>
					<path class="st64" d="M984.4,228.5c0,0-1.1,0.3-0.4-0.5c0,0,0.8-0.3,0.8,0c0,0,1.3,0.3,1.2,0.5
						C986,228.5,986.1,229.3,984.4,228.5z"/>
					<path class="st65" d="M982.3,230c0,0,0.4,0.1,0.2-0.3C982.4,229.7,980.9,229.4,982.3,230z"/>
					<path class="st64" d="M982.5,230.6c0,0,0.2-1,0.7-0.1S982.9,231.4,982.5,230.6z"/>
					<path class="st66" d="M971.5,232.9l1.6-2.3c0,0-1.5-2.2-2.4-2.1c0,0-3.2-2.1-1.8,0.7h-0.4c-0.1-0.5-0.5-0.8-1-0.7
						c-0.1,0-0.2,0.1-0.3,0.1c0,0-0.9-1.3-1.4-0.7s0.4,1.4,0.4,1.4s-0.9,0.4-1,0.2s-3.1-1.1-1,0.9c0,0-0.8,0-0.8,0.2
						s-0.9,0.6,0.9,1.2l2.5,1.4L971.5,232.9z"/>
				</g>
				<path class="st67" d="M972.7,234.5l-0.6-2c0,0-1.6-1.2-2.6,0c0,0-2-0.4-2.4,0.3c0-0.7-0.7-1.3-1.4-1.3c-0.3,0-0.6,0.1-0.9,0.4
					c0,0-1.4-1.9-2.8-0.6c-1.1-0.5-2.4-0.1-2.9,1c-0.1,0.3-0.2,0.7-0.2,1c0,0-0.6,0.6-0.5,0.9s1.2,2.6,1.2,2.6l2.8,1.5
					c0,0,2.7-0.7,3.2-0.8s4.1-1.3,4.1-1.3l2.1-0.1L972.7,234.5z"/>
				<g id="Oeuf">
					<path class="st68" d="M981.7,232.2c0,0-1.1-3.7-4.9-3.4c0,0-4.7-0.1-5.2,4.2c0,0-0.1,1.5,0.7,1.7l2.3,0.5
						c0.3,0.1,2.8,0.2,2.8,0.2l3.8-0.8C981.7,233.9,981.8,233,981.7,232.2z"/>
					<path class="st69" d="M973.1,233.1c0,0,2.4,1.3,6-0.9c0,0,1-2.9-3-2.4C976.1,229.7,971.1,231.2,973.1,233.1z"/>
					
						<ellipse transform="matrix(0.7393 -0.6734 0.6734 0.7393 97.8219 716.2819)" class="st70" cx="973.9" cy="231.8" rx="0.8" ry="0.5"/>
					<path class="st71" d="M971.8,234c0.4-0.1,0.8,0,1.1,0.2c0.8,0.3,1.6,0.5,2.4,0.4c0.4,0,0.9,0,1.3,0.2c0.5,0.1,1,0.2,1.5,0.2
						c1-0.1,1.9-0.4,2.9-0.7c-1.2,0.3-2.3,0.7-3.5,1.1C977.4,235.4,971.7,235.5,971.8,234z"/>
				</g>
				<path class="st72" d="M975.9,240.7l0.9-1.5l0.8-3.1c0,0-0.5-0.8-0.9-0.9c-0.3,0-0.6,0-0.9,0.2c-0.6-0.3-1.3-0.5-1.9-0.6
					c-0.4,0.1-2.8,0.1-2.8,0.4s-0.6,0.6-0.3,0.9s-3.9-0.2-4.9,1.2c-0.1,0.1-0.2,0.3-0.2,0.5c0,0,1.2-1-1.5-0.4s-0.9,1.4-0.9,1.4
					L975.9,240.7"/>
				<g id="Soja">
					<path class="st73" d="M992.6,235.4c0,0-7.2-5.8-9.7-3l7,5.5c0,0,6.6-3.1,3.3-4.6c0,0,0.5-1-1.8-0.7c-0.8-0.8-2.1-1-3.2-0.4
						c0,0,0.7-3.1-2.4-0.6c0,0,1.4,0.2,1.9-0.3c0,0-2.7,2.1-2.8,2.1s-1.2-1.7-1.3-1.3c0,0-1.5-0.6-1.9,0.1c0,0-1,0.4-0.8,2.4l6,2.1
						L992.6,235.4z"/>
				</g>
				<g id="boeuf">
					<path class="st74" d="M987.1,237.5c0,0-0.1-1,0.3-0.9c0,0-0.2-0.7,0.5-0.1c0,0,1-0.6,1.1,0.6c0,0,1.2,0.3,0.9,0.8
						c0,0-10.3,5.1-14.9,2.3c0,0-0.9-0.8,1.1-1.2c0,0-2.5-0.7,0.3-1.8c0,0-0.5-1.7,1-1.1c0,0-0.3-1.5,0.9-0.9c0,0,0.5-1.5,1.4-0.4
						c0,0,1.3-0.3,1.5,0c0,0,1.7-0.7,1.8,0.3c0,0,0.3-0.2,0.4,0.2c0,0,0.6-0.9,1,0.1c0,0,1.2,0.3,1.1,1c0,0,1.4-0.9,1.3,0.4
						L987.1,237.5z"/>
				</g>
				<g id="Graine">
					<path class="st75" d="M980.9,235.8c0,0-0.1,0.5,0.3,0.4C981.1,236.2,981.7,235.9,980.9,235.8z"/>
					<path class="st75" d="M980.5,238.3c0,0,0.3-0.4,0-0.5C980.4,237.8,979.8,237.8,980.5,238.3z"/>
					<path class="st75" d="M982.6,238.8c0,0,0.4,0.3,0.5,0C983.1,238.7,983.1,238.2,982.6,238.8z"/>
					<path class="st75" d="M989.8,237.7c0,0-0.5-0.3-0.5,0.1C989.3,237.8,989.3,238.4,989.8,237.7z"/>
					<path class="st75" d="M988.3,237.8c0,0-0.5-0.3-0.5,0.1C987.8,237.9,987.9,238.5,988.3,237.8z"/>
					<path class="st75" d="M977.2,238.5c0,0-0.1-0.5-0.4-0.3C976.8,238.3,976.4,238.7,977.2,238.5z"/>
					<path class="st75" d="M977.9,236.7c0,0-0.3-0.4-0.5-0.2C977.4,236.6,977.2,237.1,977.9,236.7z"/>
					<path class="st75" d="M977.8,239.3c0,0-0.5,0-0.4,0.3C977.3,239.6,977.7,240.1,977.8,239.3z"/>
					<path class="st75" d="M981.6,239.7c0,0-0.5,0-0.4,0.3C981.2,240.1,981.5,240.6,981.6,239.7z"/>
					<path class="st75" d="M979.4,236.1c0,0-0.1-0.3-0.2-0.2C979.2,235.9,979,236.2,979.4,236.1z"/>
					<path class="st75" d="M985.5,237.4c0,0-0.5,0.3-0.2,0.5C985.3,237.9,985.9,238.2,985.5,237.4z"/>
					<path class="st75" d="M984.7,237c0,0-0.4,0.3-0.1,0.5C984.7,237.5,985.2,237.6,984.7,237z"/>
					<path class="st75" d="M984.8,237.4c0,0-0.1,0.4,0.3,0.4C985.1,237.8,985.7,237.6,984.8,237.4z"/>
					<path class="st75" d="M984.9,237.7c0,0-0.2,0.5,0.2,0.5C985.1,238.2,985.7,238,984.9,237.7z"/>
					<path class="st75" d="M985.1,236.5c0,0-0.5-0.1-0.5,0.2C984.6,236.7,984.9,237.3,985.1,236.5z"/>
					<path class="st75" d="M978.7,236.7c0,0-0.2,0.5,0.2,0.5C978.9,237.2,979.5,237,978.7,236.7z"/>
					<path class="st75" d="M977.7,238.1c0,0-0.2,0.5,0.2,0.5C977.8,238.6,978.4,238.4,977.7,238.1z"/>
					<path class="st75" d="M979.9,235.5c0,0-0.5-0.1-0.4,0.3C979.5,235.8,979.8,236.3,979.9,235.5z"/>
					<path class="st75" d="M979.1,235.3c0,0-0.5,0.1-0.3,0.4C978.8,235.7,979.2,236,979.1,235.3z"/>
					<path class="st75" d="M979.5,235.1c0,0-0.5,0.1-0.3,0.4C979.1,235.4,979.5,235.8,979.5,235.1z"/>
					<path class="st75" d="M978.2,235.8c0,0-0.5,0.1-0.3,0.4C977.9,236.1,978.3,236.5,978.2,235.8z"/>
				</g>
			</g>
			<g id="Bol">
				<path class="st76" d="M979.4,224.8c-21.2-1.1-22.7,9.7-22.7,9.7c-1.1,10.2,6.8,13.5,6.8,13.5c15.2,7.9,28.5-1.6,28.5-1.6
					c4.5-2.8,4.1-10,4.1-10C997.8,226.6,979.4,224.8,979.4,224.8z M980.5,240.2c0,0-22.8,1-21.5-7.2c0,0,2.7-7.2,16.7-7.2
					c0,0,14-0.1,17.8,6C993.5,231.8,998.8,237.7,980.5,240.2L980.5,240.2z"/>
				<path class="st77" d="M956.9,239.5c0-0.3,5.2,6.4,5.2,6.4c1.1-0.4,2.5,1.1,2.5,1.1c4.1,4.2,20,0.9,20,0.9
					c2.2,0.5,8.1-4.2,8.1-4.2c-0.9,0.1-0.7-0.5-0.7-0.5c-0.3-1.1,1.6,0.2,1.8-0.7c0.6-1.3,1.3-2.6,2.1-3.8c0,0,0.3,7.4-9.5,10.4
					c0,0-12.5,5.1-22.3-0.7C964.2,248.4,957.7,245.7,956.9,239.5z"/>
				<path class="st78" d="M974.8,240.7c0,0,15.9,0.1,18.9-4.4c0,0,1-0.9,0.6,0.4c0,0-5.7,6-19.1,4.6
					C975.2,241.4,973.6,241.1,974.8,240.7z"/>
				<path class="st77" d="M991.2,242.1c0,0,0.9-1,1.3-0.3s-1,0.7-1,0.7L991.2,242.1z"/>
				<path class="st77" d="M964.9,247.7c0,0,0.9-1,1.3-0.3s-1,0.7-1,0.7L964.9,247.7z"/>
				<path class="st77" d="M990.4,242.9c0,0,0.3-0.4,0.5-0.2s0,0.7-0.3,0.4L990.4,242.9z"/>
				<path class="st77" d="M964.2,245.8c0,0,0.5-0.6,1-0.2s0,0.9-0.5,0.6L964.2,245.8z"/>
				<path class="st77" d="M962.3,245.4c0,0-0.9-1.2-0.1-1s1.2,0.3,0.9,0.7C963,245.4,962.6,245.5,962.3,245.4z"/>
			</g>
			<path class="st78" d="M962.9,239.4c0,0,7.5,2.1,8.5,2s1.4-1.1-0.3-1.1c-2.7-0.4-5.3-0.9-7.9-1.5
				C963.2,238.7,961.9,238.4,962.9,239.4z"/>
			<path class="st78" d="M958.3,232.8c0,0-1.4,1.7-0.2,2.9s0.8-0.2,0.8-0.2s-0.9-1.3-0.3-2.1S958.3,232.8,958.3,232.8z"/>
			<path class="st78" d="M958.8,231.8c0,0,0.6-1.6,1.1-1.6s-0.6,1.8-0.6,1.8S958.8,232.5,958.8,231.8z"/>
			<path class="st78" d="M994.2,231.9c0.3,0.6,0.4,1.3,0.4,2c-0.2,0.8,0.8,1,0.8,0.4s0.1-2.1-0.4-2.4S994.1,231.3,994.2,231.9z"/>
			<path class="st77" d="M990.9,243.7c0,0,0.6-0.6,0.6,0.2s-0.5,0.7-0.6,0.4C990.9,244.1,990.9,243.9,990.9,243.7z"/>
		</g>
	</g>
	<g id="Calque_2-5">
		<g id="Jade">
			<g id="Polaroid-4">
				<g id="Polaroid-2-4">
					
						<image style="overflow:visible;opacity:0.25;enable-background:new    ;" width="570" height="746" xlink:href="6EB363362727B31C.png"  transform="matrix(9.000000e-02 -1.000000e-02 1.000000e-02 9.000000e-02 1036.5699 207.54)">
					</image>
					<path class="st4" d="M1049.4,268.9c-0.6,0.1-1.2-0.4-1.3-1.1l-4.3-54.1c-0.1-0.7,0.5-1.4,1.2-1.4l0,0l37.7-3
						c0.6,0,1.2,0.4,1.3,1.1l4.3,54.3c0,0.6-0.4,1.2-1.1,1.3L1049.4,268.9z"/>
					<path class="st5" d="M1045.1,212.3l37.7-3c0.6-0.1,1.1,0.4,1.2,1l4.3,54.3c0,0.6-0.4,1.1-1,1.2l-37.9,3c-0.6,0-1.1-0.4-1.2-1
						l0,0l-4.3-54.1C1043.9,213,1044.4,212.3,1045.1,212.3C1045.1,212.3,1045.2,212.3,1045.1,212.3L1045.1,212.3 M1045.2,212.2
						c-0.8,0.1-1.3,0.7-1.3,1.5c0,0,0,0,0,0l0,0l4.3,54.1c0.1,0.7,0.6,1.2,1.3,1.1l0,0l37.9-3l0,0c0.7,0,1.2-0.6,1.1-1.3
						c0,0,0,0,0,0l-4.3-54.3c-0.1-0.7-0.6-1.2-1.3-1.1L1045.2,212.2L1045.2,212.2z"/>
					
						<rect x="1047.9" y="215" transform="matrix(0.9969 -7.828510e-02 7.828510e-02 0.9969 -15.0929 84.1546)" class="st79" width="35.7" height="39.1"/>
					<path id="Scotch-5" class="st7" d="M1051.3,207.9l24.7-1.9c0,0,1.6,1.2,0.3,3.6l1.5,1.5l-1.1,1.2l-26.1,2l0.8-1.2h-0.4l0.8-2.1
						l-1.6-1.9l0.6-0.3l-0.2-0.1L1051.3,207.9z"/>
					<path class="st5" d="M1046.5,216.7l35.4-2.8l3.1,38.8l-35.4,2.8L1046.5,216.7 M1046.4,216.6l3.1,39l35.6-2.8l-3.1-39
						L1046.4,216.6L1046.4,216.6z"/>
				</g>
			</g>
			<g id="fille-2">
				<g id="Calque_38">
					<path class="st80" d="M1054,216.7c0,0,1.7,13.4,1,15.1s-5.9,12.6-6.3,8.1s-3.3-21.8-1.5-21.8
						C1051.4,218,1054.2,215.5,1054,216.7z"/>
				</g>
				<g id="Buste">
					<path id="Peau" class="st81" d="M1078.9,223.4c0,0-1.4-0.5-1.7-0.7c-0.7-0.5-1.4-0.9-2.1-1.2c0,0-1.2-0.9-1.2-1.4
						c0,0-0.3-1.1-0.3-1.3c0,0-0.5-4-0.5-4.3l-19.2,1.5c0,0,0.3,5.5,0.3,5.8c0,0,0.2,1.2-0.4,1.5c-0.9,0.8-1.9,1.4-3,1.9l-2.5,1.6
						c0,0-1,10.8,3.5,12.6s17.6,3.8,21.8,0.2s7.8-12.2,7.6-12.7S1080.4,223.2,1078.9,223.4z"/>
				</g>
				<g id="Tshirt">
					<g id="T-shirt">
						<path class="st82" d="M1078.4,222.5c0,0,0.3-0.9,0.9-0.1c0,0,3.2,0.5,3.4,0.5l2.4,29.8l-35.7,2.9l-2.4-28.8c0,0,4-3.4,4-2.5
							s-2.8,2.7-1.9,5.7s1.6,5.9,6.9,8.6c0,0,7.5,3.6,14-0.9c0,0,9-6,9.3-10.4C1079.4,227.3,1080,223.2,1078.4,222.5z"/>
						<polygon class="st83" points="1056.1,255 1071.7,239.3 1058,254.9 						"/>
						<path class="st84" d="M1074.4,237.6l-10.4,16.8l2.9-0.2l8.6-16C1075.5,238.2,1075.4,236.9,1074.4,237.6z"/>
						<path class="st85" d="M1050.7,237.8c0.7,0.8,1.5,1.5,2.4,2.1c0.5,0.1,0.3,4.2,0.3,4.2S1050.4,238.6,1050.7,237.8z"/>
						<path class="st86" d="M1047.9,234c2.3,2.5,2.7,6.3,0.8,9.2C1048.6,243.2,1049.1,236.5,1047.9,234z"/>
						<path class="st87" d="M1073.8,241.2c0,0,2,0.6,1.8,1.2s3.5-11.5,3.6-7.5s0.9,3.8,0.9,3.8s0.1-4.4,0.6-4.3s0.4,6.3,1.1,6.1
							s1.3,1.8,2.3-0.2l1,12.4l-18.8,1.5L1073.8,241.2z"/>
						<path class="st88" d="M1079.3,222.4c0,0,4.5,6.6-5,13.8c0,0-8,6.4-14.5,4.4c0,0-6-1.4-7.5-3.6c-2.1-1.8-3.5-4.3-3.7-7.1
							c0,0-0.3-3.7,0.7-4.8c0,0,3.8-2.8,0.8,1c0,0-1.5,2-0.8,3.8s0.9,3.4,1.8,4.5c1.5,1.9,3.4,3.4,5.6,4.4c3,0.9,6.1,1.2,9.2,0.8
							c2.3-1,4.6-2.3,6.7-3.7c1.9-1.5,3.7-3.3,5.3-5.2c1-1.6,1.6-3.5,1.7-5.5c0,0,0-2.4-1.1-2.9
							C1078.4,222.5,1078.7,221.6,1079.3,222.4"/>
					</g>
				</g>
				<g id="cheveux-3">
					<path class="st80" d="M1072.9,214.5l9.2-0.7c0,0,5.4,6.1,4.9,9.4s0.2,8.4-1.5,9.9s-2.2-1.6-3-5.3s-1-3.9-1.6-4.4l-1.5-0.9
						c0,0-0.3-0.9-0.8,0c0,0,0.2-0.3,0.7,0.9c0.1,0.4-3.5-1.4-3.5-1.4l-1.2-0.6C1074.5,221.4,1073.7,222.5,1072.9,214.5z"/>
				</g>
				<g id="ombre_collier" class="st89">
					<path class="st80" d="M1065.9,233.4c-0.5,0.1-0.8,0.5-0.7,0.9c0,0,0,0,0,0.1c0,0.5,0.4,0.8,0.8,0.8c0.5,0,0.9-0.5,0.8-1
						C1066.8,233.7,1066.4,233.3,1065.9,233.4L1065.9,233.4z M1066,234.8c-0.3,0.1-0.6-0.1-0.7-0.4c-0.1-0.3,0.1-0.6,0.4-0.7
						c0.3-0.1,0.6,0.1,0.7,0.4c0,0,0,0,0,0.1C1066.4,234.5,1066.3,234.7,1066,234.8L1066,234.8z"/>
					<path class="st80" d="M1065.9,231.9c-0.2-0.1-0.5,0.2-0.5,0.6c0,0.4,0.1,0.9,0.2,1.3c0.4,1.3,0.6,0,0.6,0s0.1-1.6-0.2-1.8
						C1066,232,1065.9,231.9,1065.9,231.9z"/>
					<path class="st80" d="M1065.4,236.6c0,0,0.1-1.1,0.7-1.1s0.7,0.7,0.8,0.9v0.1c0.1,0.4,0.2,0.9,0.3,1.3
						c-0.1,0.5-0.2,0.6-0.6,0.6c-0.3,0.1-0.7,0-0.9-0.3c0,0-0.1-0.1-0.1-0.1C1065.5,237.9,1065.3,237.9,1065.4,236.6z"/>
					<path class="st80" d="M1065.9,234.8c0-0.1,0-0.1,0.1-0.1c0.1-0.1,0.2-0.1,0.3,0.6s-0.2,0.6-0.3,0S1065.9,235.2,1065.9,234.8z"
						/>
					<path class="st80" d="M1066.9,237.7c0,0,0.4,0.2,0.3,0.4s-0.2,0.2-0.3,0S1066.6,237.5,1066.9,237.7z"/>
					<path class="st80" d="M1065.8,237.8c0,0-0.3,0.2-0.3,0.4s0.2,0.2,0.3,0S1066,237.6,1065.8,237.8z"/>
					<path class="st80" d="M1066.4,236.1c0,0,0.1-0.4,0.3-0.4s0.2,0.2,0,0.3S1066.3,236.4,1066.4,236.1z"/>
					<path class="st80" d="M1065.8,236.2c0,0-0.2-0.4-0.4-0.3c-0.1,0-0.1,0.2-0.1,0.3c0,0,0,0.1,0.1,0.1
						C1065.6,236.3,1066,236.5,1065.8,236.2z"/>
					<path class="st80" d="M1066,232.4c0,0,0.4-0.8,0.9-0.7s-0.6,0.9-0.6,0.9S1065.9,232.9,1066,232.4z"/>
					<path class="st80" d="M1067.8,230.8c-0.7,0-1.2,0.9-1.2,0.9c-0.2,0.6,0.5,0.2,0.5,0.2S1068.4,230.9,1067.8,230.8z
						 M1067.1,231.8c0,0-0.4,0.2-0.3-0.2c0,0,0.4-0.7,0.9-0.7S1067.1,231.8,1067.1,231.8z"/>
					<path class="st80" d="M1067.3,231.2c0,0,0.4-0.8,0.9-0.7s-0.6,0.9-0.6,0.9S1067.2,231.6,1067.3,231.2z"/>
					<path class="st80" d="M1069.1,229.6c-0.7,0-1.2,0.9-1.2,0.9c-0.2,0.6,0.5,0.2,0.5,0.2S1069.8,229.6,1069.1,229.6z
						 M1068.4,230.6c0,0-0.4,0.2-0.3-0.2c0,0,0.4-0.7,0.9-0.7S1068.5,230.6,1068.4,230.6L1068.4,230.6z"/>
					<path class="st80" d="M1068.6,229.9c0,0,0.4-0.8,0.9-0.7s-0.6,0.9-0.6,0.9S1068.5,230.4,1068.6,229.9z"/>
					<path class="st80" d="M1070.4,228.3c-0.7,0-1.2,0.9-1.2,0.9c-0.2,0.6,0.5,0.2,0.5,0.2S1071.1,228.4,1070.4,228.3z
						 M1069.7,229.3c0,0-0.4,0.2-0.3-0.2c0,0,0.4-0.7,0.9-0.6S1069.7,229.3,1069.7,229.3z"/>
					<path class="st80" d="M1069.9,228.7c0,0,0.4-0.8,0.9-0.7s-0.6,0.9-0.6,0.9S1069.8,229.1,1069.9,228.7z"/>
					<path class="st80" d="M1071.7,227.1c-0.7-0.1-1.2,0.9-1.2,0.9c-0.2,0.6,0.5,0.2,0.5,0.2S1072.4,227.1,1071.7,227.1z
						 M1071,228.1c0,0-0.4,0.2-0.3-0.2c0,0,0.5-0.8,0.9-0.7S1071,228.1,1071,228.1L1071,228.1z"/>
					<path class="st80" d="M1071.3,227.3c0,0,0-0.1,0-0.1c0.1-0.2,0.4-0.8,0.7-0.8s-0.2,0.8-0.4,1c0,0.1-0.1,0.1-0.2,0.1
						C1071.4,227.6,1071.3,227.5,1071.3,227.3z"/>
					<path class="st80" d="M1072.8,225.3c-0.6-0.1-1,1.1-1,1.1c-0.1,0.7,0.4,0.3,0.4,0.3S1073.3,225.3,1072.8,225.3z M1072.2,226.5
						c0,0-0.4,0.3-0.3-0.2c0,0,0.3-0.8,0.7-0.8S1072.2,226.5,1072.2,226.5z"/>
					<path class="st80" d="M1072.4,225.7c0,0,0.3-0.9,0.8-0.9s-0.4,1.1-0.4,1.1S1072.3,226.2,1072.4,225.7z"/>
					<path class="st80" d="M1073.4,224.2c0,0,0.3-0.9,0.8-0.9s-0.4,1.1-0.4,1.1S1073.3,224.7,1073.4,224.2z"/>
					<path class="st80" d="M1073.8,223.7c-0.6-0.1-1,1.1-1,1.1c-0.1,0.7,0.4,0.3,0.4,0.3S1074.4,223.8,1073.8,223.7z M1073.3,225
						c0,0-0.4,0.3-0.3-0.2c0,0,0.3-0.9,0.7-0.8S1073.3,225,1073.3,225L1073.3,225z"/>
					<path class="st80" d="M1065.6,232.5c-0.3-0.2-0.7-0.3-1.1-0.3c-0.5,0.1,0.7,0.5,0.7,0.5S1065.7,232.8,1065.6,232.5z"/>
					<path class="st80" d="M1064.4,232.4c0,0,0.7,0.1,0.4-0.2c-0.4-0.3-0.9-0.4-1.4-0.4C1062.8,231.9,1064.4,232.4,1064.4,232.4z
						 M1063.7,231.9c0.4,0,0.7,0.1,1,0.3c0.2,0.2-0.3,0.1-0.3,0.1S1063.2,232,1063.7,231.9L1063.7,231.9z"/>
					<path class="st80" d="M1064.1,231.9c-0.3-0.2-0.6-0.3-1-0.3c-0.5,0.1,0.7,0.5,0.7,0.5S1064.2,232.2,1064.1,231.9z"/>
					<path class="st80" d="M1062.9,231.8c0,0,0.7,0.1,0.5-0.2c-0.4-0.3-0.9-0.4-1.4-0.4C1061.3,231.3,1062.9,231.8,1062.9,231.8z
						 M1062.1,231.3c0.4,0,0.7,0.1,1,0.3c0.2,0.2-0.3,0.1-0.3,0.1S1061.7,231.4,1062.1,231.3L1062.1,231.3z"/>
					<path class="st80" d="M1062.5,231.3c-0.3-0.2-0.6-0.4-1-0.4c-0.5,0.1,0.7,0.5,0.7,0.5S1062.7,231.6,1062.5,231.3z"/>
					<path class="st80" d="M1061.4,231.2c0,0,0.7,0.1,0.4-0.2c-0.4-0.3-0.8-0.5-1.3-0.5C1059.9,230.6,1061.4,231.2,1061.4,231.2z
						 M1060.7,230.6c0.3,0,0.7,0.1,0.9,0.3c0.2,0.3-0.3,0.2-0.3,0.2S1060.2,230.7,1060.7,230.6L1060.7,230.6z"/>
					<path class="st80" d="M1061.1,230.7c-0.3-0.2-0.6-0.4-1-0.4c-0.5,0.1,0.7,0.5,0.7,0.5S1061.2,231,1061.1,230.7z"/>
					<path class="st80" d="M1060,230.5c0,0,0.7,0.1,0.4-0.2c-0.4-0.3-0.8-0.5-1.3-0.5C1058.4,230,1060,230.5,1060,230.5z
						 M1059.3,229.9c0.3,0,0.7,0.1,0.9,0.3c0.2,0.3-0.3,0.2-0.3,0.2S1058.8,230,1059.3,229.9L1059.3,229.9z"/>
					<path class="st80" d="M1059.4,229.8c0,0-0.5-0.6-1-0.5s0.7,0.7,0.7,0.7S1059.6,230.2,1059.4,229.8z"/>
					<path class="st80" d="M1058.3,229.6c0,0,0.6,0.2,0.4-0.3c0,0-0.7-0.8-1.3-0.7S1058.3,229.6,1058.3,229.6z M1057.6,228.8
						c0.4-0.1,0.9,0.5,0.9,0.5c0.2,0.4-0.3,0.2-0.3,0.2S1057.2,228.9,1057.6,228.8L1057.6,228.8z"/>
					<path class="st80" d="M1058,228.9c0,0-0.5-0.6-1-0.5s0.7,0.7,0.7,0.7S1058.1,229.3,1058,228.9z"/>
					<path class="st80" d="M1056.9,228.7c0,0,0.6,0.2,0.4-0.3c0,0-0.7-0.8-1.3-0.7S1056.9,228.7,1056.9,228.7z M1056.2,227.9
						c0.4-0.1,0.9,0.5,0.9,0.5c0.2,0.4-0.3,0.2-0.3,0.2S1055.8,228,1056.2,227.9L1056.2,227.9z"/>
					<path class="st80" d="M1056.6,227.9c0,0-0.4-0.7-0.8-0.6s0.6,0.8,0.6,0.8S1056.8,228.4,1056.6,227.9z"/>
					<path class="st80" d="M1055.2,227.2l0.4,0.3h0.1c0.1,0,0.2,0,0.2-0.2 M1055.9,227.3c-0.1-0.1-0.2-0.3-0.3-0.4l0.1-0.1
						c0.2,0.1,0.3,0.3,0.4,0.5l0,0c0.1,0.3-0.1,0.3-0.2,0.3h-0.1c-0.2-0.1-0.4-0.3-0.5-0.4L1055.9,227.3z"/>
					<path class="st80" d="M1073.6,223.6c0,0-0.1,0.6,0.3,0.3c0,0,0.6-0.8,0.4-1.3S1073.6,223.6,1073.6,223.6z M1074.2,222.8
						c0.2,0.4-0.3,0.9-0.3,0.9c-0.3,0.2-0.2-0.2-0.2-0.2S1074.1,222.4,1074.2,222.8L1074.2,222.8z"/>
					<path class="st80" d="M1074.1,222.3c0,0,0,0.6,0.4,0.2c0,0,0.4-0.9,0.1-1.4S1074.1,222.3,1074.1,222.3z M1074.6,221.3
						c0.2,0.3-0.1,1-0.1,1c-0.2,0.3-0.3-0.2-0.3-0.2S1074.3,221,1074.6,221.3L1074.6,221.3z"/>
					<path class="st80" d="M1074.3,223c0,0,0.4-0.7,0.1-1.1s-0.4,0.9-0.4,0.9S1074,223.3,1074.3,223z"/>
				</g>
				<g id="Collier">
					<path class="st90" d="M1066.1,233.2c-0.5,0-0.9,0.5-0.8,1c0,0.5,0.5,0.9,1,0.8c0.5-0.1,0.8-0.5,0.7-1c0,0,0,0,0,0
						C1067,233.5,1066.6,233.2,1066.1,233.2C1066.2,233.2,1066.2,233.2,1066.1,233.2L1066.1,233.2z M1066.3,234.6
						c-0.3,0-0.6-0.3-0.6-0.6c0-0.3,0.2-0.5,0.5-0.6c0.3,0,0.5,0.2,0.5,0.5c0,0,0,0,0,0l0,0C1066.7,234.3,1066.5,234.6,1066.3,234.6
						z"/>
					<path class="st90" d="M1066.2,231.8c-0.3-0.1-0.5,0.2-0.5,0.6c0,0.4,0.1,0.9,0.2,1.3c0.4,1.3,0.6,0,0.6,0s0.1-1.6-0.2-1.8
						C1066.2,231.8,1066.2,231.8,1066.2,231.8z"/>
					<path class="st79" d="M1065.7,236.4c0,0,0.1-1.1,0.7-1c0.4,0.1,0.7,0.5,0.8,0.9v0.1c0.1,0.4,0.2,0.9,0.3,1.3
						c-0.1,0.5-0.2,0.6-0.7,0.6c-0.3,0.1-0.7,0-0.9-0.2c0,0-0.1-0.1-0.1-0.1C1065.8,237.8,1065.6,237.7,1065.7,236.4z"/>
					<path class="st90" d="M1066.2,234.7c0-0.1,0-0.1,0.1-0.2c0.1-0.1,0.2-0.1,0.3,0.7s-0.2,0.6-0.3,0S1066.2,235,1066.2,234.7z"/>
					<path class="st90" d="M1067.1,237.5c0,0,0.4,0.2,0.4,0.4s-0.2,0.2-0.3,0S1066.9,237.4,1067.1,237.5z"/>
					<path class="st90" d="M1066,237.6c0,0-0.3,0.2-0.3,0.4s0.2,0.2,0.3,0S1066.3,237.4,1066,237.6z"/>
					<path class="st90" d="M1066.7,236c0,0,0.2-0.4,0.3-0.4s0.2,0.2,0,0.4S1066.6,236.3,1066.7,236z"/>
					<path class="st90" d="M1066.1,236c0,0-0.2-0.4-0.4-0.3c-0.1,0-0.1,0.2-0.1,0.3c0,0,0.1,0.1,0.1,0.1
						C1065.9,236.1,1066.4,236.3,1066.1,236z"/>
					<path class="st90" d="M1066.3,232.3c0,0,0.4-0.8,0.9-0.7s-0.6,0.9-0.6,0.9S1066.1,232.7,1066.3,232.3z"/>
					<path class="st90" d="M1068.1,230.6c-0.7,0-1.2,0.9-1.2,0.9c-0.2,0.6,0.5,0.2,0.5,0.2S1068.7,230.7,1068.1,230.6z
						 M1067.4,231.6c0,0-0.5,0.2-0.3-0.2c0,0,0.4-0.7,0.9-0.7S1067.4,231.6,1067.4,231.6L1067.4,231.6z"/>
					<path class="st90" d="M1067.6,231c0,0,0.4-0.8,0.9-0.7s-0.6,0.9-0.6,0.9S1067.4,231.4,1067.6,231z"/>
					<path class="st90" d="M1069.4,229.4c-0.7,0-1.2,0.9-1.2,0.9c-0.2,0.6,0.5,0.2,0.5,0.2S1070.1,229.4,1069.4,229.4z
						 M1068.7,230.4c0,0-0.4,0.2-0.3-0.2c0,0,0.4-0.7,0.9-0.7S1068.7,230.4,1068.7,230.4L1068.7,230.4z"/>
					<path class="st90" d="M1068.9,229.8c0,0,0.4-0.8,0.9-0.7s-0.6,0.9-0.6,0.9S1068.7,230.2,1068.9,229.8z"/>
					<path class="st90" d="M1070.7,228.2c-0.7,0-1.2,0.9-1.2,0.9c-0.2,0.6,0.5,0.2,0.5,0.2S1071.3,228.2,1070.7,228.2z M1070,229.2
						c0,0-0.4,0.2-0.3-0.2c0,0,0.4-0.7,0.9-0.7S1070.1,229.2,1070,229.2L1070,229.2z"/>
					<path class="st90" d="M1070.2,228.5c0,0,0.4-0.8,0.9-0.7s-0.6,0.9-0.6,0.9S1070.1,229,1070.2,228.5z"/>
					<path class="st90" d="M1072,226.9c-0.7,0-1.2,0.9-1.2,0.9c-0.2,0.6,0.5,0.2,0.5,0.2S1072.7,227,1072,226.9z M1071.3,227.9
						c0,0-0.4,0.2-0.3-0.2c0,0,0.5-0.8,0.9-0.7S1071.3,227.9,1071.3,227.9L1071.3,227.9z"/>
					<path class="st90" d="M1071.6,227.1c0-0.1,0-0.1,0-0.2c0.1-0.2,0.4-0.8,0.7-0.8s-0.2,0.8-0.4,1c0,0.1-0.1,0.1-0.2,0.1
						C1071.7,227.4,1071.6,227.4,1071.6,227.1z"/>
					<path class="st90" d="M1073.1,225.1c-0.6-0.1-1,1.1-1,1.1c-0.1,0.7,0.4,0.3,0.4,0.3S1073.6,225.2,1073.1,225.1z M1072.5,226.3
						c0,0-0.4,0.3-0.3-0.2c0,0,0.3-0.9,0.7-0.8S1072.5,226.3,1072.5,226.3L1072.5,226.3z"/>
					<path class="st90" d="M1072.6,225.5c0,0,0.3-0.9,0.8-0.9s-0.4,1.1-0.4,1.1S1072.6,226.1,1072.6,225.5z"/>
					<path class="st90" d="M1073.7,224c0,0,0.3-0.9,0.8-0.9s-0.4,1.1-0.4,1.1S1073.6,224.5,1073.7,224z"/>
					<path class="st90" d="M1074.1,223.6c-0.6-0.1-1,1.1-1,1.1c-0.1,0.7,0.4,0.3,0.4,0.3S1074.7,223.7,1074.1,223.6z M1073.6,224.8
						c0,0-0.4,0.3-0.3-0.2c0,0,0.3-0.9,0.7-0.8S1073.6,224.8,1073.6,224.8L1073.6,224.8z"/>
					<path class="st90" d="M1065.8,232.4c-0.3-0.2-0.6-0.3-1-0.3c-0.5,0.1,0.7,0.5,0.7,0.5S1066,232.6,1065.8,232.4z"/>
					<path class="st90" d="M1064.7,232.3c0,0,0.7,0.1,0.5-0.2c-0.4-0.3-0.9-0.4-1.4-0.4C1063.1,231.7,1064.7,232.3,1064.7,232.3z
						 M1063.9,231.7c0.4,0,0.7,0.1,1,0.3c0.2,0.2-0.3,0.2-0.3,0.2S1063.5,231.8,1063.9,231.7L1063.9,231.7z"/>
					<path class="st90" d="M1064.3,231.8c-0.3-0.2-0.6-0.3-1-0.3c-0.5,0.1,0.7,0.5,0.7,0.5S1064.5,232,1064.3,231.8z"/>
					<path class="st90" d="M1063.2,231.6c0,0,0.7,0.1,0.5-0.2c-0.4-0.3-0.9-0.4-1.4-0.4C1061.6,231.1,1063.2,231.6,1063.2,231.6z
						 M1062.4,231.1c0.4,0,0.7,0.1,1,0.3c0.2,0.2-0.3,0.2-0.3,0.2S1061.9,231.2,1062.4,231.1L1062.4,231.1z"/>
					<path class="st90" d="M1062.8,231.2c-0.3-0.2-0.6-0.4-1-0.4c-0.5,0.1,0.7,0.5,0.7,0.5S1063,231.4,1062.8,231.2z"/>
					<path class="st90" d="M1061.7,231c0,0,0.7,0.1,0.4-0.2c-0.4-0.3-0.8-0.5-1.3-0.5C1060.2,230.4,1061.7,231,1061.7,231z
						 M1061,230.4c0.3,0,0.7,0.1,0.9,0.3c0.2,0.3-0.3,0.2-0.3,0.2S1060.5,230.5,1061,230.4L1061,230.4z"/>
					<path class="st90" d="M1061.3,230.5c-0.3-0.2-0.6-0.4-1-0.4c-0.5,0.1,0.7,0.5,0.7,0.5S1061.5,230.8,1061.3,230.5z"/>
					<path class="st90" d="M1060.2,230.4c0,0,0.7,0.1,0.4-0.2c-0.4-0.3-0.8-0.5-1.3-0.5C1058.7,229.8,1060.2,230.4,1060.2,230.4z
						 M1059.5,229.8c0.3,0,0.7,0.1,0.9,0.3c0.2,0.3-0.3,0.2-0.3,0.2S1059,229.8,1059.5,229.8L1059.5,229.8z"/>
					<path class="st90" d="M1059.7,229.7c0,0-0.5-0.6-1-0.5s0.7,0.7,0.7,0.7S1059.8,230,1059.7,229.7z"/>
					<path class="st90" d="M1058.6,229.4c0,0,0.7,0.2,0.4-0.3c0,0-0.7-0.8-1.3-0.7S1058.6,229.4,1058.6,229.4z M1057.9,228.6
						c0.4-0.1,0.9,0.5,0.9,0.5c0.2,0.4-0.3,0.2-0.3,0.2S1057.5,228.7,1057.9,228.6L1057.9,228.6z"/>
					<path class="st90" d="M1058.2,228.7c0,0-0.5-0.6-1-0.5s0.7,0.7,0.7,0.7S1058.4,229.1,1058.2,228.7z"/>
					<path class="st90" d="M1057.2,228.5c0,0,0.6,0.2,0.4-0.3c0,0-0.7-0.8-1.3-0.7S1057.2,228.5,1057.2,228.5z M1056.5,227.7
						c0.4-0.1,0.9,0.5,0.9,0.5c0.2,0.4-0.3,0.2-0.3,0.2S1056.1,227.8,1056.5,227.7L1056.5,227.7z"/>
					<path class="st90" d="M1056.9,227.8c0,0-0.4-0.6-0.8-0.6s0.6,0.8,0.6,0.8S1057,228.2,1056.9,227.8z"/>
					<path class="st90" d="M1056,227.5c0,0,0.6,0.2,0.3-0.3c0,0-0.6-0.9-1.1-0.7S1056,227.5,1056,227.5z M1055.4,226.6
						c0.4-0.1,0.8,0.5,0.8,0.5c0.1,0.4-0.2,0.2-0.2,0.2S1055,226.7,1055.4,226.6z"/>
					<path class="st90" d="M1055.7,226.8c0,0-0.4-0.7-0.8-0.6s0.6,0.8,0.6,0.8S1055.8,227.2,1055.7,226.8z"/>
					<path class="st90" d="M1054.4,225.7c0,0-0.4-0.7-0.8-0.6s0.6,0.8,0.6,0.8S1054.6,226.1,1054.4,225.7z"/>
					<path class="st90" d="M1054.7,226.5c0,0,0.6,0.2,0.3-0.3c0,0-0.6-0.9-1.1-0.7S1054.7,226.5,1054.7,226.5z M1054.1,225.6
						c0.4-0.1,0.8,0.5,0.8,0.5c0.2,0.4-0.2,0.2-0.2,0.2S1053.8,225.7,1054.1,225.6L1054.1,225.6z"/>
					<path class="st90" d="M1073.9,223.5c0,0-0.1,0.6,0.3,0.3c0,0,0.6-0.8,0.4-1.3S1073.9,223.5,1073.9,223.5z M1074.6,222.7
						c0.2,0.4-0.3,0.9-0.3,0.9c-0.3,0.2-0.2-0.2-0.2-0.2S1074.4,222.2,1074.6,222.7L1074.6,222.7z"/>
					<path class="st90" d="M1074.4,222.2c0,0,0,0.6,0.4,0.2c0,0,0.5-0.9,0.1-1.4S1074.4,222.2,1074.4,222.2z M1074.8,221.2
						c0.2,0.3-0.1,1-0.1,1c-0.2,0.3-0.3-0.2-0.3-0.2S1074.6,220.9,1074.8,221.2L1074.8,221.2z"/>
					<path class="st90" d="M1053.7,225.6c0,0,0.4,0.5,0.4-0.1c0,0-0.2-1-0.7-1.2S1053.7,225.6,1053.7,225.6z M1053.4,224.5
						c0.4,0.1,0.5,0.8,0.5,0.8c0,0.4-0.3,0.1-0.3,0.1S1053,224.4,1053.4,224.5L1053.4,224.5z"/>
					<path class="st90" d="M1053.1,224.1c0,0,0.2,0.5,0.3,0c0,0,0.1-0.9-0.3-1.1S1053.1,224.1,1053.1,224.1z M1053.2,223.2
						c0.2,0.2,0.2,0.8,0.2,0.8c-0.1,0.3-0.2,0-0.2,0S1052.9,223.1,1053.2,223.2L1053.2,223.2z"/>
					<path class="st90" d="M1074.6,222.8c0,0,0.4-0.7,0.1-1.1s-0.4,0.9-0.4,0.9S1074.3,223.1,1074.6,222.8z"/>
					<path class="st90" d="M1053.6,224.6c0,0,0.1-0.8-0.3-1s-0.1,1-0.1,1S1053.4,225,1053.6,224.6z"/>
				</g>
				<g id="Ombre-2">
					<path class="st91" d="M1067,230.8c0,0,4.5-4.1,8.4-4.1s0.7,1.1-1.6,2.2c-1.5,0.7-3,1.6-4.4,2.6
						C1069.4,231.5,1064.7,234.8,1067,230.8z"/>
					<path class="st91" d="M1054.8,228.4c0,0,5.7,0.6,8.1,3.4s-0.3,1.4-2.5,0.3c-1.4-0.6-3-1.1-4.5-1.4
						C1055.8,230.7,1050.6,229.4,1054.8,228.4z"/>
					<path class="st92" d="M1070.8,214.7l-24.4,1.8l0.7,10.3l0.2,3.5c0,0,6.3-1.4,6.7-2.1S1070.8,214.7,1070.8,214.7z"/>
					<line class="st38" x1="1055.2" y1="227.2" x2="1055.2" y2="227.3"/>
				</g>
			</g>
		</g>
	</g>
	<g id="Calque_2-6">
		<g id="Philippines">
			<g id="Polaroid-5">
				<g id="Polaroid-2-5">
					<g id="image-3" transform="matrix(0.09, -0.03, 0.03, 0.09, 1159.61, 191.28)" class="st41">
						
							<image style="display:inline;overflow:visible;enable-background:new    ;" width="570" height="746" id="image-2_2_" xlink:href="6EB363362727B31F.png"  transform="matrix(9.000000e-02 -3.000000e-02 3.000000e-02 9.000000e-02 1248.5288 161.12)">
						</image>
					</g>
					<path class="st4" d="M1277.3,218.8c-0.6,0.2-1.3-0.1-1.5-0.7l0,0l-18.4-52.6c-0.2-0.7,0.1-1.5,0.8-1.7c0,0,0,0,0,0l0,0
						l36.7-12.7c0.6-0.2,1.3,0.1,1.5,0.7c0,0,0,0,0,0l18.5,52.8c0.2,0.6-0.1,1.3-0.8,1.5L1277.3,218.8z"/>
					<path class="st5" d="M1294.9,151c0.6-0.2,1.3,0.1,1.5,0.7l18.5,52.8c0.2,0.6-0.1,1.2-0.7,1.5l-36.8,12.7
						c-0.6,0.2-1.3-0.1-1.5-0.7c0,0,0,0,0,0l0,0l-18.5-52.6c-0.2-0.7,0.1-1.5,0.8-1.7L1294.9,151 M1294.9,150.9l-36.7,12.7
						c-0.7,0.3-1.1,1.1-0.9,1.8l18.4,52.6c0.2,0.6,0.9,1,1.6,0.8l0,0l36.8-12.7c0.6-0.2,1-0.9,0.8-1.6c0,0,0,0,0,0l0,0l-18.5-52.8
						C1296.2,151,1295.5,150.7,1294.9,150.9L1294.9,150.9z"/>
					<polygon class="st93" points="1260.7,167.6 1295.3,155.7 1308.5,193.6 1273.9,205.5 					"/>
					<path id="Scotch-6" class="st94" d="M1263.1,157.3l24.1-8.3c0,0,1.8,0.8,1.2,3.5l1.8,1.1l-0.8,1.5l-25.4,8.7l0.5-1.4l-0.4,0.1
						l0.3-2.3l-2.1-1.5l0.5-0.5l-0.2-0.1L1263.1,157.3z"/>
					<path class="st5" d="M1295.2,155.7l13.2,37.7l-34.4,11.9l-13.2-37.7L1295.2,155.7 M1295.2,155.6l-34.6,12l13.3,37.8l34.6-12
						L1295.2,155.6z"/>
				</g>
			</g>
			<g id="Philippines-2">
				<g id="fond">
					<g id="Calque_71">
						<path class="st95" d="M1294.9,158.7l-4.4,0.3c0,0-3.5-0.2-4.6,0.6c0,0-2.8,0.4-2.9,1.5c0,0-1.2,1.1-2.9-1c0,0-0.6-1.2-2.4,0.3
							l-1.2,0.1c0,0-2.1-1.3-2.7,0.7c0,0-0.4,1.5-1.6,1.4s-1.5,0.5-1.5,0.5c-0.7-0.5-1.7-0.4-2.3,0.4c0,0,0,0,0,0.1
							c0,0-2.6,0.4-3.6,2.1c-0.7,0.2-1.4,0.5-2,0.9c-0.3-0.4-0.9-0.6-1.4-0.3c-0.3-0.1-0.6-0.1-0.9-0.1c-0.1,0-0.3,0.1-0.3,0.2
							c0,0,0,0,0,0l0,0v0.1l7.3,20.7c0.1,0.2,0.4,0.4,0.6,0.3c0,0,0,0,0,0l0,0l19.2-7.4L1294.9,158.7"/>
						<path class="st96" d="M1274.9,179.7c0,0-2.8-5.3-2.2-6.3s-1.3-5.6-1.3-5.6s-0.2-4,1.4-4.1s0.9-2.3,0.9-2.3s0.4-1.9,2.8-0.7
							c0,0,2.3,2.1,2.6,4.3s2.6,1.7,2.7,2.6s2.6,4.4,2.6,4.4s3.2,1.2,2.7,2.5s1.7,4.7,1.7,4.7l-10.2,4.2L1274.9,179.7z"/>
						<path class="st97" d="M1294.3,159.1c0,0-1.2,1.1-0.6,1.8c0,0-0.8,0.7-0.6,1.1c0,0-0.2,0.6,0,0.8c0,0-0.3,0.5-0.3,0.6l-0.6,0.4
							c0,0-1.4,0.5-1.4,0.8c0,0-0.7,0.7-0.5,1.2c0,0-0.6,0.7-0.4,1c0,0,0.2,1,0.6,0.9c0,0-2.5-0.9-2.3,1c-0.6,0.5-0.9,1.2-0.8,1.9
							c0,0-0.5,1.7-0.1,2.2c0,0-0.1,0.9,0.1,1c-0.4,0.6-0.7,1.3-0.8,2l1.1,4.3l3-1c0,0,0.3-3.8,1.2-4c0,0,0.8-1.1,1.4-1
							c0,0,1.2-2,2.2-1.7c0,0,2-4,3.9-4.2l-3.4-9.6L1294.3,159.1z"/>
						<path class="st98" d="M1299.5,168.1c-1.8,0.3-3.2,1.7-3.8,3.4c-0.2,0.6-0.6,0.9-1.2,1l0,0c-0.6,0.3-1,1.4-1.7,1.5
							c-0.5,0.1-0.8,0.5-0.8,1c0,0-1.8,0.7-1.2,4c0,0,4.2-1.1,5.1-1.4l5.4-4.1L1299.5,168.1z"/>
						<path class="st99" d="M1301.9,175.2l-5.7,2.3c0,0-0.8-0.4-0.8-0.6c0,0-0.3-0.7,0.7-0.9c0,0,0.2-0.7,0.6-0.8
							c0,0,0.3-0.8,1.6-0.5c0,0,1.2,0,1.2-0.2l2-1L1301.9,175.2z"/>
						<path class="st97" d="M1264.3,178.4c0,0,3.7-3,4.9-1.3c0.7,1,2,1.4,3.1,0.9c0,0,1.5-0.8,1.5,0.8s1.8,0.7,2.2,1.5
							s2.7-1.5,3.5,0.5s0.7,2,0.7,2l-12.2,4.6c-0.3,0.1-0.6,0-0.7-0.3l0,0L1264.3,178.4z"/>
						<path class="st100" d="M1265.5,181.8c0,0,4.2-2.4,7.2,2.8l0.2,0.4c0.1,0.4-0.1,0.9-0.5,1c0,0,0,0,0,0l0,0l-4.1,1.4
							c-0.4,0.1-0.8,0-1-0.4C1266.6,185.5,1265.1,182,1265.5,181.8z"/>
						<path id="eau" class="st101" d="M1301.9,175.1c0,0-3.9,1.6-4.3,1.8c-0.8,0.1-1.6,0.4-2.3,0.8l-2.3,0.6
							c-0.8,0.1-1.6,0.3-2.4,0.6c0,0-5.1,0.8-8,2.7c0,0-5.2,1.9-5.6,2.2c0,0-6.4,2.2-6.8,2.6c-0.8,0.2-1.5,0.5-2.2,0.9
							c0,0-2.5,3.3,2,7.2c0,0,2.5,4.5,2.3,6.5c0,0,0.2,4.5,2.1,4.2s34-11.7,34-11.7L1301.9,175.1z"/>
						<path class="st102" d="M1273,185.3L1273,185.3c1.6-0.4,8.9-2.2,9.7-3.2c0.5-0.7,1.2-1.2,2-1.6L1273,185.3z"/>
						<path class="st102" d="M1288.9,179.4c-0.9,0.6-1.8,1.1-2.7,1.5c-2.3,0.1-2-0.1-2-0.1C1285.7,180.1,1287.3,179.6,1288.9,179.4"
							/>
						<path class="st102" d="M1267.8,188.2c0,0,7.1-1.9,6.8-2.9s0.1-0.5,0.1-0.5c-2.2,0.5-4.4,1.3-6.5,2.3
							C1265.6,188.5,1267.8,188.2,1267.8,188.2z"/>
					</g>
					<g id="maison">
						<polyline class="st99" points="1275.2,184.5 1275.1,184.2 1275.2,184.1 1275.3,184.5 						"/>
						<polyline class="st99" points="1277.7,183.5 1277.6,183.2 1277.7,183.2 1277.8,183.5 						"/>
						<polyline class="st99" points="1278.8,183.2 1278.7,182.8 1278.8,182.8 1278.9,183.2 						"/>
						<polyline class="st99" points="1280.7,182.5 1280.6,182.2 1280.7,182.1 1280.8,182.5 						"/>
						<polyline class="st99" points="1281.6,182.1 1281.2,181.8 1281.3,181.7 1281.6,182.1 						"/>
						<polyline class="st99" points="1276.1,184.2 1276,183.9 1276.1,183.8 1276.2,184.2 						"/>
						<polygon class="st103" points="1274.9,184.3 1274.3,182.7 1277.3,181.6 1277.8,183.1 						"/>
						<polygon class="st103" points="1278.4,183 1278.1,182.2 1281.1,181.2 1281.4,181.9 						"/>
						<polygon class="st104" points="1275.3,184.1 1275.1,183.5 1275.5,183.4 1275.7,184 						"/>
						<polygon class="st105" points="1274.3,183.7 1277.7,182.5 1277.5,181.6 1274.2,182.7 						"/>
						<polygon class="st106" points="1277.7,181.6 1278,182.4 1281.3,181.2 1280.5,180.6 						"/>
						<polygon class="st96" points="1278.6,182.3 1279.1,182.1 1279.2,182.3 1278.6,182.5 						"/>
						<polygon class="st96" points="1279.8,181.8 1279.9,182 1280.3,181.9 1280.3,181.6 						"/>
						<polygon class="st96" points="1279.1,182.2 1279.8,181.9 1279.9,182 1279.1,182.2 						"/>
					</g>
				</g>
				<g id="fille-3">
					<g id="Calque_65">
						<path class="st107" d="M1283,191.6c0,0-1.1,0.5-1.6-0.2c0,0-0.2-0.9,0.9-1.2l1.4-0.4l7.8-2.6l0.5,0.8L1283,191.6z"/>
						<path class="st108" d="M1303,184c0,0-19.5,7.6-19.8,7.5c0,0-0.4,0.2-0.4-0.1c0,0,0.7-0.8,3.7-1.9l5.6-2.3c0,0,9.8-4,10-3.8
							l1.5,0.2L1303,184z"/>
						<path class="st108" d="M1302,183.5l-18.1,6.8c0,0-0.1-0.8-0.3-0.8l6.3-2.1l6.1-2.3l4.2-1.7l1.2-0.4l0.8,0.3L1302,183.5z"/>
						<path class="st109" d="M1283.7,189.6L1283.7,189.6c-0.1,0.2-0.1,0.7,0.2,0.7S1283.9,189.7,1283.7,189.6z"/>
						<path class="st110" d="M1302.9,177.9l-7.5,2.5c-0.3,0-0.5,0.1-0.7,0.2c-0.5,0.3-1.1,0.5-1.6,0.6l-1.7,0.9l0.2,0.7l3.7-1.7
							l7.8-2.9L1302.9,177.9z"/>
						<path class="st111" d="M1296.4,183.7l-1-0.2c0,0-1.1-0.3-1.2-0.1c-0.2-0.1-0.4-0.1-0.6-0.1l-1.3,0.5l2.6,0.4
							C1294.9,184.2,1296.7,184.2,1296.4,183.7z"/>
					</g>
					<path class="st25" d="M1289.1,182.9c-0.2,0.1-0.4,0.2-0.7,0.3c-0.7,0.5-1.3,1-1.9,1.6c0,0-0.9,0.6-0.7,1.1
						c0.1,0.2,0.2,0.3,0.3,0.5C1286.4,186.5,1289.9,183.2,1289.1,182.9z"/>
					<path class="st25" d="M1287.8,177.8c-0.7,0.2-1,0.9-0.8,1.6c0,0,0,0,0,0c0,0.1,0.1,0.2,0.1,0.3c0,0,0.4,0.7,0.4,0.9l0.2,0.9
						l-0.1,2.1l-0.2,0.6c0,0,0,0.3,0.1,0.3c0.2-0.2,0.4-0.4,0.6-0.6c0.3-0.7,0.5-1.5,0.5-2.3c0,0-0.1-1.3-0.2-1.4s0.2,1.6,0.4,1.7
						c0,0.3,0.1,0.7,0.3,1v0.1c0,0-3.4,2.7-3.1,3.1c0,0.2,0.1,0.5,0.2,0.7c0.3,1,0.6,2,1,2.9c0,0.3,0,0.7,0,1l-0.2,0.6l-0.2,0.7
						c0,0,0,0.2,0.2,0.1c0,0-0.1,0.2,0.1,0.2c0,0,0.1,0.1,0.1,0.1l0,0c0,0,0.1,0.2,0.2,0c0,0,0.1,0,0.2-0.2c0.1-0.1,0.2-0.3,0.2-0.5
						l0.3-1.5c0-0.5,0-1-0.1-1.5c-0.1-0.3-0.2-2-0.6-2.1l1.7-2l2.7-1.9c0-0.3-0.2-0.5-0.4-0.7c0,0-0.4-0.6-0.4-0.7
						c-0.2-0.3-0.3-0.6-0.3-0.9c0-0.3-0.1-0.6-0.3-0.8c0,0-0.8-2.3-1.6-2.2L1287.8,177.8z"/>
					<path class="st25" d="M1287.7,186.5c0.3,0.5,0.5,1,0.7,1.6c0.2,0.5,0.4,1,0.7,1.4c0,0,0.8,0.7,0.4,0.9
						c-0.1,0.2-0.3,0.4-0.6,0.4c-0.2,0.2-0.3,0.4-0.4,0.6c-0.1,0.2-0.2,0.4-0.4,0.4l-0.4,0.1c0,0-0.3-0.1,0-0.3c0,0,0.3-0.3,0.3-0.4
						c0-0.3,0.1-0.5,0.2-0.8C1288.2,190.6,1287.1,186.7,1287.7,186.5z"/>
					<path class="st110" d="M1289.3,183.1c0,0,0.4-2,2.2-0.6l-0.2-0.7c-0.3-0.7-0.6-1.4-0.8-2.1c0,0-1.8,0.7-1.9,0.6
						c0,0,0.1,1.5,0.4,1.6C1288.9,181.8,1289.1,183.2,1289.3,183.1z"/>
					<path class="st110" d="M1287.7,177.9c0,0,1.3,0.2,2.2,2.1l0.2-0.1c0,0-1.5-2.4-2.2-2.2S1287.7,177.9,1287.7,177.9z"/>
					<path id="cheveux-4" d="M1287.4,178.5l0.3-0.2c0,0,1.6,1.9,1.4,1.9c0,0,0.4-0.5-0.9-1.9v-0.1c0,0,1.9,1.5,2,1.6
						s1.4,1.3,0.7,0.1c-0.5-0.9-1.1-1.7-1.8-2.4c-0.1-0.1-0.1-0.1-0.1-0.2c-0.2-0.4-0.4-2.7-2.2-1.9c-0.4,0.2-0.7,0.6-0.7,1
						c0,0.1,0,0.1,0,0.2c0,0.2,0.1,0,0.5,0.8l0,0c0.1,0.2,0.3,1.8,0.3,1.9c0.2,0.6,0.5,0.9,0.3,0.5c0,0-0.3-1.4,0.1-1.3"/>
				</g>
				<g id="Bateau">
					<g id="Calque_67">
						<path class="st112" d="M1297.6,162.8c0,0,0,0.3-0.7-0.8l-2.6-3c0,0-0.2-0.5,0-0.5l0.2,0.4l0.2-0.3l0.8,0.3l0.5,0.2l-0.4-0.3
							c0,0,0.5,0.1,0.5,0s-0.7-0.1-0.7-0.1l0.4-0.7L1297.6,162.8z"/>
						<path class="st113" d="M1288,161l0.1-0.4c0,0-0.1-0.2-0.1-0.3s0.2,0.2,0.2,0.2l0.2,0.4v0.8c0,0-0.4-0.6-0.3-0.6
							S1288,161,1288,161z"/>
						<polygon class="st114" points="1294.6,158.9 1288.4,161.7 1288.5,160.9 1294.4,158.1 						"/>
						<path class="st115" d="M1288,160.1l5.4-2.3l1,0.2l-6,2.8c0,0-0.3-0.4-0.2-0.4S1287.8,160.2,1288,160.1z"/>
						<path class="st116" d="M1292.8,157.8l-1.7,1.3l1-0.4c0.2-0.3,0.5-0.6,0.9-0.8C1293.4,157.9,1292.8,157.8,1292.8,157.8z"/>
						<polygon class="st117" points="1291.1,159.2 1291.3,158.9 1292.8,157.7 1292.8,157.8 						"/>
						<path class="st118" d="M1294.4,153.7l-1.6,4c0,0.1,0.1,0.3,0.2,0.3c0,0,0,0,0,0l0,0c0.1,0,0.1,0,0.2-0.1l0.3,0.6
							c0,0,0.1,0,0-0.6c0,0,0,0.2,0.2,0c0,0,0,0.4,0.2,0.3c0,0-0.1,0.2,0.1,0.1l0.4,0.2l0.1,0.2l0.2-0.3l1.3,0.5l-0.4-0.3
							c0,0,1.3,0.1-0.1-0.1l0.4-0.7L1294.4,153.7z"/>
						<path class="st119" d="M1289.3,159.6l0.7,0.5l-0.1,1c0,0,0.2,0,0.2-0.1c0-0.3,0-0.6,0-0.9c0,0-0.4-0.6-0.6-0.6
							S1289.3,159.6,1289.3,159.6z"/>
					</g>
					<g id="Calque_66">
						<path class="st120" d="M1289.3,184.5c0,0,2.3-3.6,2.4-4.5l0.7-1.5v-2.2l-2.6-15.3v-0.9l-0.6-0.5h0.1l0.6,0.6v0.9l2.8,16.3
							c0.1,0.1,0.2,0.2,0.3,0.4c0,0.2,1.1,0.2,1.2,0.1s0,0.9-1.1,0.3c0,0-0.6,0.5-0.6,0.4c-0.3,0.5-0.5,1-0.7,1.6l-1.1,2.5l-1.3,1.9
							L1289.3,184.5z"/>
						<path class="st120" d="M1292.5,181.7l0.2-3.3c0,0,0.1-3.2,0.7-3.7c0,0,0-0.7,0.3-0.9l3.1-13.3l-2.7,13.1
							c-0.1,0.6-0.2,1.3-0.4,1.9c-0.2,0.4-0.3,0.8-0.5,1.3l-0.2,1.5l-0.3,3.6L1292.5,181.7z"/>
						<path class="st120" d="M1289.3,185.7c0,0-0.1,0.8,0.1,1s0.1,0,0.1,0L1289.3,185.7z"/>
						<path class="st120" d="M1291,185.2c0,0,0.1-0.6,0-0.6s0.1-0.1,0.1-0.1S1291.2,185.3,1291,185.2L1291,185.2"/>
						<path class="st121" d="M1290.6,183.8c1.1-1,2.1-2,3-3.1l3-3.2c0,0,0.2-0.6,0.6-0.7l1.5-1.7c0-0.2,0.2-0.4,0.4-0.4l1.2-1.4
							l0.9-1l0.2,0.5l-1.5,1.4c0,0-0.2,0.3-0.3,0.3c-0.1,0.1-0.2,0.2-0.3,0.3c-0.1,0.2-0.2,0.3-0.4,0.4l-1.3,1.4
							c-0.2,0.3-0.4,0.5-0.7,0.7l-3,3.4l-2.5,2.6L1290.6,183.8z"/>
						<path class="st121" d="M1292.2,182.9c0,0,0.5-1,0.3-1.1s0.1-0.1,0.1-0.1c0,0.4-0.1,0.7-0.3,1.1
							C1292.3,182.8,1292.3,182.8,1292.2,182.9z"/>
						<path class="st121" d="M1292.6,181.8c0,0,0.1,0.7,0.2,0.7l0.3-0.1C1292.9,182.3,1292.7,182.1,1292.6,181.8L1292.6,181.8z"/>
					</g>
					<g id="Calque_64">
						<path class="st122" d="M1307.7,191.8l-18.7-6c0.3-0.3,0.7-0.5,1.1-0.8c0.3-0.1,16.6,3.7,16.6,3.7L1307.7,191.8z"/>
						<path class="st123" d="M1304.5,190.7c0,0-0.5-1.6,0.4-1.8s0.3,0.2,0.2,0.5s-0.2,1.4,0,1.4L1304.5,190.7z"/>
						<path class="st123" d="M1306.2,191.5c0,0-0.3-1.9,0.2-2s0.6,0,0.1,0.4l0.4,1.8L1306.2,191.5z"/>
						<polygon class="st124" points="1308.2,193.2 1288.5,186.2 1288.8,186 1308,192.4 						"/>
						<polygon class="st125" points="1307.7,191.8 1289.1,185.8 1288.8,186 1308,192.4 						"/>
						<path class="st126" d="M1297.8,185.7c0,0,0,1,0.4,1.1l8.5,2.1l-0.3-1C1306.4,187.8,1300.1,186.2,1297.8,185.7z"/>
						<path class="st127" d="M1290.8,184.7c0,0,2.9,0.4,3,0.4l4.1,0.7l2.2,0.5l3.1,0.7l3.1,0.7l-0.8-2.2l-4.7-0.9l-2.3-0.2l-5.1-0.3
							c-0.4,0-0.8,0-1.2,0C1291.7,184.2,1291.3,184.4,1290.8,184.7z"/>
						<g id="Baton_du_haut">
							<path class="st128" d="M1303.3,179.2l-4.7,1.8c-0.1,0-4.6,2.2-4.8,2.2l-1.2,0.5l-2.4,1.4c-1,0.7-2,1.3-3,1.8
								c-0.4-0.3-0.6-0.7-0.6-1.1c0,0,2.7-1.4,2.9-1.5c0.2-0.2,0.5-0.3,0.8-0.4c0.6-0.4,1.2-0.7,1.8-1c0.3-0.2,0.6-0.4,1-0.4
								l1.9-0.8c0.4-0.3,0.9-0.6,1.4-0.8l1.3-0.6l1.7-0.6c0,0,0.9-0.1,1-0.3c0,0,1-0.4,1.6-0.6l1.1-0.4L1303.3,179.2z"/>
							<g id="Baton_haut">
								<path class="st129" d="M1303.8,180.4l-2,0.8c-1.3,0.5-2.6,1.1-3.9,1.7c0,0-1.6,0.6-1.7,0.9l-2.1,1.1c-0.1,0-2.2,1-2.2,1
									l0.7,1.4c1.1-0.5,2.1-1.1,3.2-1.8c0.7-0.3,1.3-0.6,1.9-0.9c0.3-0.2,0.6-0.3,1-0.4c0.3-0.1,0.6-0.2,0.9-0.4l1.9-0.7l2.7-1.4
									L1303.8,180.4z"/>
								<path class="st130" d="M1291.9,185.9c0,0-0.3,0.2-0.1,0.7c0,0,0.2,0.7,0.6,0.7c0,0,0.4,0.2,0.3-0.3
									C1292.7,187,1292.4,185.7,1291.9,185.9z"/>
								<path class="st130" d="M1286.8,185.7c-0.2,0.1-0.2,0.4-0.1,0.5c0,0,0,0,0,0c0,0,0.2,0.5,0.5,0.6c0,0,0.3,0.1,0.3-0.2
									C1287.4,186.6,1287.1,185.6,1286.8,185.7z"/>
							</g>
						</g>
						<polygon class="st123" points="1307,189.7 1304.9,189.2 1304.5,187.9 1306.5,188.3 						"/>
						<polygon class="st123" points="1304.5,187.9 1305.1,187.4 1306.3,187.6 1306.5,188.3 						"/>
						<g id="Cordes">
							<path class="st131" d="M1298,182.8c0,0,0.7,1.1,0.4,1.4c0,0,0.2-0.1,0.2-0.1c0-0.4-0.1-0.8-0.3-1.1
								C1298.3,183,1298.1,182.6,1298,182.8z"/>
							<path class="st132" d="M1299.5,182c0,0,0.3-0.5,0.7-0.3l-0.1,0.3L1299.5,182z"/>
							<path class="st133" d="M1300.2,183.6c0.1,0,0.2-0.1,0.2-0.3c0-0.2-0.3-1-0.6-1c-0.2-0.2-0.4-0.2-0.7-0.1l-0.2,0.1
								c0,0,0.1-0.4,0.3-0.3c0,0,0.8-0.2,0.9,0.2c0,0,0.9,0.2,0.7,1.1c0,0-0.1,0.3-0.2,0.4S1300.2,183.7,1300.2,183.6z"/>
						</g>
						<g id="à_droite">
							<polygon class="st134" points="1304,185.1 1300.1,182.1 1300.5,182 1304.6,185.2 							"/>
							<polygon class="st135" points="1300.5,182 1301.2,180.6 1304.8,183.3 1305.5,185.4 1304.5,185.2 							"/>
							<path class="st136" d="M1300,182l0.7-1.3l0.5-0.1l-0.7,1.4L1300,182C1300.1,182,1300,182.1,1300,182z"/>
							<path class="st137" d="M1304.8,183.5l-2.4-0.2c-0.2-0.2-0.4-0.6-0.3-0.9l2.4,0.1L1304.8,183.5z"/>
							<path class="st138" d="M1302,181.8c0,0-0.6,0.1-0.1,0.5l2.6,0.1l-0.2-0.5L1302,181.8z"/>
							<path class="st139" d="M1299.7,183.2c0,0,0.1,0.1,0.1,0.1l0,0c0,0,0.1,0.3,0.2,0c0,0-0.2-0.9-0.5-0.9c0,0,0-0.3-0.4-0.1
								l-1.3,0.6c0,0-0.1,0.2,0.2,0.1c0.3-0.2,0.6-0.3,0.9-0.5h0.3C1299.1,182.5,1299.9,182.9,1299.7,183.2z"/>
						</g>
					</g>
				</g>
			</g>
		</g>
	</g>
	<g id="Calque_2-7">
		<g id="Calque_59">
			<g id="Pola_Shaymin">
				<g id="Polaroid-6">
					<g id="image-4" transform="matrix(0.09, -0.03, 0.03, 0.09, 1228.51, 168.23)" class="st41">
						
							<image style="display:inline;overflow:visible;enable-background:new    ;" width="570" height="746" id="image-2_3_" xlink:href="6EB363362727B318.png"  transform="matrix(9.000000e-02 -3.000000e-02 3.000000e-02 9.000000e-02 1179.2281 183.9183)">
						</image>
					</g>
					<path class="st4" d="M1207.7,241.2c-0.6,0.2-1.3-0.1-1.5-0.7l0,0l-18.2-52.3c-0.2-0.7,0.1-1.5,0.9-1.7c0,0,0,0,0,0l0,0
						l36.4-12.6c0.6-0.2,1.3,0.1,1.5,0.7l0,0l18.3,52.5c0.2,0.6-0.1,1.3-0.8,1.5L1207.7,241.2z"/>
					<path class="st5" d="M1225.3,173.9c0.6-0.2,1.2,0.1,1.5,0.7l18.3,52.5c0.2,0.6-0.1,1.2-0.7,1.4l0,0l-36.6,12.6
						c-0.6,0.2-1.2-0.1-1.4-0.7l-18.2-52.3c-0.2-0.7,0.1-1.5,0.8-1.7L1225.3,173.9 M1225.3,173.8l-36.4,12.6
						c-0.8,0.2-1.2,1.1-0.9,1.8c0,0,0,0,0,0l0,0l18.2,52.3c0.2,0.6,0.9,1,1.6,0.8c0,0,0,0,0,0l0,0l36.6-12.6c0.6-0.2,1-0.9,0.8-1.6
						l-18.3-52.5C1226.6,173.9,1225.9,173.6,1225.3,173.8L1225.3,173.8z"/>
					<polygon class="st140" points="1191.3,190.3 1225.6,178.4 1238.8,216.1 1204.4,227.9 					"/>
					<path id="Scotch-7" class="st141" d="M1193.8,180.6l23.9-8.2c0,0,1.8,0.8,1.2,3.5l1.8,1.1l-0.7,1.5l-25.2,8.7l0.5-1.4l-0.4,0.2
						l0.3-2.3l-2.1-1.5l0.5-0.5l-0.2-0.1L1193.8,180.6z"/>
					<path class="st5" d="M1225.6,178.6l13.1,37.5l-34.2,11.8l-13-37.5L1225.6,178.6 M1225.7,178.5l-34.4,11.8l13.1,37.7l34.4-11.8
						L1225.7,178.5z"/>
				</g>
			</g>
			<g id="Shaymin">
				<g id="ombre-3">
					<path class="st142" d="M1232.1,205.5c0,0,1.7,2.8,1,3c-0.6,0.3-1.2,0.7-1.7,1.2c-0.2,0.3-0.9,2.4-0.9,2.4s-3.2,2.6-5.7,2.7
						c0,0-0.7,1.1-3.5,1.8c0,0-4.8,2.8-5.8,2.1l-0.9,0.8c0,0-3.9-0.8-3.8-0.5s0.7,1.6,0.7,1.6l1,4.8l-7.6,2.6l-4.3-12.2
						c0,0,6.4-1,6.3-1.5c0,0,0.2,1.1,0.6,0.9c0.6-0.1,1.2-0.1,1.7,0.1l2.8-0.2L1232.1,205.5"/>
				</g>
				<g id="décor">
					<path class="st143" d="M1220.9,191.1c0,0-0.1-4.8-5.4-9c0,0,6.2,3.6,6.8,6.9c0,0,2.7-11.2,3.2-11.2s-1.9,11.7-0.3,11.8
						c0,0,0.6-6.8,1.7-7.8c0,0,2,10.6,0.8,11.6c0,0,0.7-5.9,1.4-6.3l6,18.2c0,0-1.4,1.1-2.2-1.1L1220.9,191.1z"/>
					<path class="st143" d="M1220.6,186.2c0,0-2-7.4-2.4-7.4s3.6,5.3,3.9,7.8s-0.4-4.6-0.1-4.5s0.7,3.9,0.7,3.9s0.7-4,1.1-4.2
						s-1.1,7.9-1.1,7.9L1220.6,186.2z"/>
					<path class="st143" d="M1209.4,193.5c0,0,0.3-3.8-7.7-9.4c0,0,8.7,4.8,9.8,8.3S1209.4,193.5,1209.4,193.5z"/>
					<path class="st143" d="M1208.4,193.5c0,0-2.5-4.7-7.7-5.4c0,0,7.7,4,7.6,6.5S1208.4,193.5,1208.4,193.5z"/>
					<path class="st144" d="M1199.3,196.1c0,0,0.8-6.1,1.2-6s-0.6,6.6-0.6,6.6"/>
					<path class="st145" d="M1200.2,205.7c0,0-5.4-6.3-6.5-7.2s-1.3-0.8-1.3-0.8s5.1,2,7.9,4.6s2.4,1.7,2.4,1.7l0.1,9.7l-1.8,0.9
						C1200.9,214.6,1200.2,206.6,1200.2,205.7z"/>
					<path class="st146" d="M1201.3,214c0,0,1-7.8-0.3-10.6s2.6,9,2.6,10.4s-3.1-15.9-5-17.1c0,0-6.4-6.9-6.1-7.6s8.5,5.8,8.7,10.7
						c0,0,5.3,14.6,4.4,14.8S1205.3,217.7,1201.3,214z"/>
					<path class="st147" d="M1200.1,205.3c0,0-3.3-3.7-4.5-3.6s-0.6,0-0.6,0s2.9,1.6,3,3.5s0.5,2,0.5,2l2.2,1.9L1200.1,205.3z"/>
					<path class="st145" d="M1201.7,201.2c0,0,1.2-3.7,1.4-3.3s0.3,3.4-0.5,3.9S1202.2,203.9,1201.7,201.2z"/>
					<path class="st145" d="M1200.8,210.5c-1.1-1.4-2.2-2.7-3.5-3.8c0,0-0.6-0.6-0.8-0.5s3.6,1.5,4.1,2.9S1200.8,210.5,1200.8,210.5
						z"/>
				</g>
				<g id="Shaymin_dessin">
					<g id="droite">
						<path class="st148" d="M1230.6,199.2c0,0,1.6-0.5,1,1.9c0,0-0.3,1.9-0.8,2.2s-1.7-1.8-1.7-1.8L1230.6,199.2"/>
					</g>
					<g id="Peau-2">
						<path id="patte_d" class="st149" d="M1230.5,203.2c0.2,0.1,0.4,0,0.5-0.2c0.5,0.5,1,1.1,1.2,1.8c0,0.2-0.1,0.5-0.1,0.7
							c0,0-0.3,2.2-1,2.6c-0.5,0.5-1.1,0.7-1.8,0.7c0,0-0.5-0.2,0-0.8L1230.5,203.2z"/>
						<path id="patte_g" class="st149" d="M1221.7,209c0,0,2.1,0.7,2.2,0.7s2.3,0.5,2.2,1c0,0,1,1.3-1.4,2.2c0,0-7.8,2.1-10,1.3
							c-0.5,0-1-0.1-1.5-0.2c0,0,1.9-2,1.8-2.4c0,0,2.4-2.4,3-2.9L1221.7,209z"/>
						<g id="Visage">
							<path id="Tête" class="st149" d="M1229.1,201.7c0.3,0.1,0.7,0.2,0.9,0.5c0,0.1,0.1,0.2,0.2,0.2c0.1,0.1,0.2,0.2,0.3,0.3
								c0.3,0.6,0.5,1.3,0.6,1.9c-0.1,1.1-0.6,2.2-1.5,3c-0.1,0.1-0.1,0.2-0.2,0.2c-0.9,0.8-1.9,1.4-3.1,1.8
								c-0.4,0.1-0.8,0.2-1.2,0.2c-1,0-3-0.1-3.2-0.5l-1.5-3.1l2-1.8C1222.4,204.5,1227,206,1229.1,201.7z"/>
							<g id="Ombres">
								<g id="Calque_48">
									<path class="st150" d="M1223.5,207.3c0,0,0.3,1.9-0.5,2.2s-1.5-0.7-1.5-0.7l-0.4-2.4l1.5-1.9l3.4-0.1c0,0,0.5,0.6,0.3,0.6
										c-0.7,0.2-1.3,0.5-2,0.7C1224.3,205.8,1224,207.1,1223.5,207.3z"/>
								</g>
							</g>
							<g id="oeil">
								<path class="st151" d="M1228.6,203.6c0.3,0.1,0.8,0.2,1.2-0.8c0,0,0.1,0,0.1,0l0,0l0.2,1c0,0,0,0,0,0.1l0,0
									c-0.4,0-0.9,0.1-1.3,0.2c0,0-0.1,0-0.1,0l0,0l-0.2-0.4C1228.5,203.7,1228.5,203.7,1228.6,203.6L1228.6,203.6L1228.6,203.6z"
									/>
								<path class="st151" d="M1229.9,202.7c0,0,0.6-0.1,0.1,0.4S1229.9,202.7,1229.9,202.7z"/>
								<path class="st151" d="M1222,206.6c0,0,0.6,0.3,0.8,0.1c0.3-0.2,0.7-0.3,1-0.4c0,0,0.4-0.5,0.4-0.5s-0.3,1.2-0.8,1.4
									C1223.4,207.1,1221.9,207.4,1222,206.6z"/>
							</g>
							<path id="museau" class="st151" d="M1227.8,206.4c0,0-0.2-0.8,1-1c0,0,0.5,0.1,0.1,0.4C1229,205.8,1228.7,206.9,1227.8,206.4
								z"/>
						</g>
					</g>
					<g id="Fleur-d">
						<path class="st152" d="M1229.1,196.2c0,0-0.3-1.2,1.8-0.8c0,0,1.2,2.2,0.2,2.7S1229.1,196.2,1229.1,196.2z"/>
						<path class="st152" d="M1225.8,193c0,0,1.5-3.1,2.1,0.1S1225.8,193,1225.8,193z"/>
					</g>
					<g id="Dos">
						<path class="st153" d="M1222.5,204.5c0,0,4.8,1.4,6.7-2.9c0,0,1.9-2.7,1.7-3.1c0,0,0.5-1.2-1.2-1.6c-0.4-0.2-0.6-0.7-0.5-1.2
							c0,0,0.8-2.7-1.3-2.7l-2.3-0.1c0,0,0.4-2.5,0.1-2.7c0,0-0.8-1.8-3.7-1c-1.2,0.2-2.3,0.5-3.5,1c0,0-0.1-2.5-2.8-0.3
							c0,0-2.7,2.2-2.9,2.9c0,0-1.5-3-2.8,0.4c0,0-2.4-2.7-3.1,3c0,0-3.2-0.3-2.6,1.8c0,0,0.4,1.3,1.4,1c-1.7,0.6-3.1,2-3.6,3.7
							c0,0-0.2,2.2,1.8,1.4c0,0-2.1,3.4-0.7,3.7l2.4,1.9l5.5-4.3L1222.5,204.5z"/>
						<path class="st154" d="M1222.5,198.5c0,0-0.6-0.9,0.9-1.1s1,1.3,0.4,1.1S1222.5,199.1,1222.5,198.5z"/>
						<path class="st154" d="M1216.8,194.7c0,0-1.7-1.1,0.7-1c0,0,0.8,0,0.8,0.5S1217.7,195.2,1216.8,194.7z"/>
						<path class="st154" d="M1213,197.7c0,0,0.5-1.5-1.1-0.7c0,0-0.3,0.6,0.2,0.7S1212.7,197.9,1213,197.7z"/>
						<path class="st154" d="M1208.1,202.3c0,0-0.6-0.8,0.3-1.2s1.2-0.8,1.4-0.2s-0.1,0.9-0.6,1S1209.3,202.3,1208.1,202.3z"/>
						<path class="st155" d="M1220.9,203.6c0,0,0.4-2.1,3-0.8s5.4-2.7,5.4-3.4s0.6-1.4-0.2-2.2s0.3-2.9,0.3-2.9
							c0,0.5-0.1,0.9-0.2,1.4c-0.2,0.5,0,1,0.5,1.2c0.1,0,0.2,0.1,0.2,0.1c0,0,1.2,0.4,1,1.5l-2.4,4c0,0-1.5,3.1-5.8,1.9
							C1222.7,204.4,1221.4,204.7,1220.9,203.6z"/>
						<path class="st155" d="M1203.3,208c0,0,2.7-3.4,4.1-3.3c1.3-0.2,2.5-0.6,3.6-1.3l4.2-2.9c0,0,5-0.2,5.3,0.9s-8.4,4.6-8.4,4.6
							S1205.5,212.6,1203.3,208"/>
					</g>
					<g id="Feuilles-g">
						<path class="st156" d="M1204.5,209.7c0,0,0.3,4.9,1.1,4.9s3-1.6,2.9-2.4S1204.4,209.3,1204.5,209.7"/>
						<path class="st156" d="M1210.4,212c0,0-2.6-0.9-4.3,2.1s3.9,0.8,4.8,0.2"/>
						<path class="st153" d="M1211.6,205.3c0,0-5.1-1.3-5.4,2.5c0,0-0.4,2.1-0.3,1.9c0.8,0.8,1.6,1.6,2.4,2.4
							c1.9,0.4,3.8-0.6,4.5-2.4C1213.2,208.2,1212.7,206.5,1211.6,205.3z"/>
						<path class="st153" d="M1215,211.8c0,0-1.8,3.3-3.6,3.1c0,0-0.8,0.3-1.3-1c0,0-0.8-1.3-0.1-1.7l2.8-2.6l1.5-0.7L1215,211.8z"
							/>
						<path class="st157" d="M1211.5,214.8c0,0,0.9-4.5,1.4-4.5c0.2,0,0.1,0.5-0.1,1s-0.5,1.3-0.3,1.4c0,0,0.2,1.6,0.9,0.5
							c0,0,1-1,0.2-1.3c0,0-0.4-1-0.2-1.1c0,0,0.3-0.6,0.1-0.5c0,0-1.2,0.9-1.4,0.4s0.7-2.3,2.2-1.7s0.6,4.1-0.3,4.2
							C1214.1,213.3,1211.8,215.6,1211.5,214.8z"/>
						<path class="st157" d="M1206.9,210.4c1-0.6,2-1.3,2.9-2.1c-0.1-0.2,0.4-0.5,0.4-0.5l2.6,1.9c0,0-0.8,1.4-1.1,1
							s-1.1-0.8-1.3-1.1s-2.6,1.4-2.8,1.4S1207.1,211.1,1206.9,210.4z"/>
						<path class="st157" d="M1207.4,211.3c0,0,1.6,0,1.8,0.4s1.1-0.1,1.1-0.1l0.2,0.4C1210.5,212,1207.9,212.9,1207.4,211.3z"/>
					</g>
					<g id="Fleur">
						<g id="Fleur-g">
							<path id="fleur-2" class="st152" d="M1218.8,202.4c1-0.8,2.3-1.1,3.5-0.8c0,0,1,5.2-1.6,4.6c0,0,2.2,2.3,0.6,4.1
								c0,0-1.7,1.2-3.3-1.7c0,0,0.3,1.9-0.7,2.4c-0.5,0.5-1.1,0.8-1.8,0.8c-0.6-0.3-1.1-0.9-1.2-1.6c0-0.4-0.1-0.9-0.1-1.3
								c-0.7,0.5-1.5,0.7-2.3,0.6c0,0-1.6-0.3-1.9-1.1c0,0,0.2-2.5,1-2.8c0.5-0.2,1-0.3,1.5-0.4c0,0-1.2-0.1-1.4-1
								c-0.3-0.8-0.5-1.7-0.7-2.5c0,0,2-0.9,3-0.4c0,0,1.2,0.4,1.3,0.9c0,0-0.1-1.9,0.7-2.4c0.5-0.5,1.1-1,1.7-1.4
								c0,0,1.4,0.2,1.6,2.4C1218.9,200.9,1219.2,202,1218.8,202.4z"/>
							<path class="st158" d="M1217.2,205c0,0,0.9-0.1,1-0.3S1217.6,204.1,1217.2,205z"/>
							<path class="st159" d="M1217.5,206.4c0,0-0.3-0.5,0.3-0.3S1218.4,207.1,1217.5,206.4z"/>
							<path class="st160" d="M1216.1,206.7c0,0,0.5,1.1,0.1,1S1216.1,206.7,1216.1,206.7z"/>
							<path class="st161" d="M1214.5,206.8c0,0-0.2-0.5,0.4-0.5S1214.6,207.3,1214.5,206.8z"/>
							<path class="st162" d="M1214.7,204.5c0,0-0.5-0.4-0.2-0.5S1215.4,204.5,1214.7,204.5z"/>
							<path class="st163" d="M1216.2,204.3c0,0-0.3-1,0.2-0.9S1216.2,204.3,1216.2,204.3z"/>
							<path class="st164" d="M1215.9,205.9c0,0-0.6-0.3,0-0.6S1216.7,206,1215.9,205.9z"/>
						</g>
					</g>
				</g>
				<g id="vegetation">
					<path class="st143" d="M1218.6,223.2c0,0-14.4-16.9-17.8-16.7c0,0,12.2,10.6,15.2,17.6c0,0-15.6-12.4-17-10.9
						c0,0,13.7,11.9,13.3,12.1c-0.5,0.2-0.9,0.4-1.4,0.5c0,0-6.1-6.2-7.3-5.7s5.4,6.3,5.4,6.3l-1.8,0.6c0,0-4-4.5-4.3-4.4
						s3.6,4.6,3.6,4.6L1218.6,223.2z"/>
					<path class="st143" d="M1223.8,221.4c0,0,3.8-6.9,5.6-6.9c0,0-4.7,6.3-3.6,6.2S1223.8,221.4,1223.8,221.4z"/>
					<path class="st143" d="M1218.6,223.2c0.5-1,0.2-2.3-0.7-3c0,0,2.1,1.4,2,2.5L1218.6,223.2z"/>
					<path class="st143" d="M1228.7,219.7c0,0,0.9-2.9,1.2-2.8s0.4,2.3,0.4,2.3L1228.7,219.7z"/>
				</g>
			</g>
		</g>
	</g>
</g>
<g id="Fille-4">
	<path id="main" class="st165" d="M1121.6,233.4c0,0-7.9-4-19.6-16c-0.5-0.6-0.8-1.3-1.5-1.7c-3.9-1.8-15.8-7.6-14.7-8.7
		c0,0,0-5.9,14.8-4.3c1.6,0.2,3.1-0.9,3.3-2.5c0,0,0,0,0,0c0.1-0.8-0.2-1.7-0.7-2.3l-0.1-0.1c-2.7-2.6-12-2.6-17.2,6.6
		s-15.8-6.5,11.6-27.5c0.2-0.2,0.4-0.3,0.7-0.4c2.3-1,15.4-6.1,27.5-2.5c0,0,15.9,3.9,29.2,51.4"/>
	<g id="Dos_bras">
		<path class="st5" d="M1189.9,749.9c0,0,2.7-13.2,1.3-34.4c0-0.8-0.1-1.6-0.2-2.5c-1.5-18.1-5.5-35.8-11.7-52.8
			c-18.6-51.4-13.3-138.5-13.3-138.5l18.6-21.1c8-1.3,14.6-33,22.6-84.4s-5.3-87.1-4-92.3s-5.3-15.8-23.9-55.4s-25.2-43.5-25.2-43.5
			s-21.2-2.6-31.8,9.2s-5.3,26.4-6.6,27.7s21.2,23.8,21.2,23.8c-1.3,21.1,14.6,68.6,14.6,69.9s-6.6,50.1-8,51.5
			s-29.2,18.5-29.2,18.5c-78.3,40.9-176.4,13.2-176.4,13.2s14.6-9.2,17.2-13.2s114.1-145.1,114.1-145.1s4-4,5.3-17.1
			s-13.3-7.9-14.6-7.9s-18.6,22.4-18.6,22.4l-102,96.3c-46.4,48.8-35.8,51.4-41.1,59.4s-6.6,60.7-6.6,71.2
			c0,10.6,42.5,81.8,39.8,80.5S918,619.2,918,619.2c-4,4-17.9,73.3-17.9,73.3c-17.3,50.1-12,68.5-12,68.5
			c-13.3,7.9-10.6,22.4-10.6,22.4s33.8,15.2,44.4,31c0,0,18.6,9.2,21.2,9.2s17.2-2.6,33.2-10.6h34.5c0,0,11.9,4,26.5,14.5
			c0,0,19.9-9.2,23.9-2.7c0,0,19.9-1.3,29.2,2.7c0,0,30.5-29,47.8-25.1c5.9,1.3,11,6.4,15.2,12.5c0.3,0.4,0.6,0.8,0.8,1.3
			c7.5,11.5,11.8,25.8,11.8,25.8"/>
		<path class="st5" d="M1154.1,815.8c13.3-14.5,14.6-14.5,26.5-25.1c8.6-7.5,15.1-5.7,18.1-4c0.7,0.4,1.3,0.8,1.8,1.3
			c14.6-2.7,21.2-13.2,23.9-23.8l9.3-18.5c2.7-5.3-34.5-37-42.4-33"/>
	</g>
	<g id="Jambes">
		<path class="st166" d="M1179.3,661.5c0,0,62.3-33,78.3,23.8c0,0-26.5,54.1-25.2,55.4s-10.6-18.5-41.1-29L1179.3,661.5z"/>
		<path class="st166" d="M876.9,784.2c0,0-1.3-6.6,9.3-22.4c0,0,0-36.9,11.9-68.6c0,0,2.7-21.1,5.3-21.1c0,0-41.1-22.4-66.3-4
			c0,0-37.1,18.5,0,79.2c0,0,19.9,34.3,22.5,37S876.9,784.2,876.9,784.2z"/>
	</g>
	<path id="Cheveux-5" d="M1122.9,418.1c0,0,10.6-42.2,0-81.8c0,0-6.6-15.8-11.9-17.1c0,0-23.9-43.5-50.4-52.8
		c0,0-30.5-5.3-49.1,10.5c0,0-42.5,14.5-47.8,50.1c0,0-15.9,18.5-17.2,54.1c0,0-10.6,44.9-8,52.8c0,0-10.6,0-27.9,18.5
		c0,0-42.4,56.7-39.8,60.7c0,0,39.8-46.2,45.1-39.6l-4,52.8c0,0-15.9,40.8-9.3,48.8c0,0,11.9-52.8,18.6-47.5c0,0-10.6,47.5-9.3,60.7
		l6.6-11.9l13.3-15.8c0,0-5.3,34.3-1.3,34.3c0,0,0-25.1,6.6-21.1c0,0-4,22.4-2.7,26.4s14.6,11.9,14.6,11.9l8-2.6v7.9H985
		c0,0,54.4,2.6,76.9-6.6c0,0,6.6-10.6-5.3-29l19.9-1.3c0,0-2.7,19.8,1.3,23.8c0,0-4-25.1,1.3-23.8h18.6c0,0-1.3,10.6,1.3,15.8
		s11.9,18.5,22.6,19.8s14.6-4,14.6-4s-17.2-6.6-13.3-33c0,0,4,18.5,13.3,19.8s15.9,2.6,15.9,2.6s-2.7-7.9,15.9-23.8
		c0,0-10.6-35.6-6.6-66c0,0,19.9,21.1,11.9,38.3s-5.3,11.9-5.3,11.9s19.9-15.8,6.6-58c0,0,1.3-23.8-4-44.9
		S1122.9,418.1,1122.9,418.1z"/>
	<path id="Main-2" class="st165" d="M1050,265.2c0,0,7.4-10,8.7-10c1,0,13.8-5.5,16,3.3c1.2,5.2,0.9,10.7-0.9,15.8"/>
</g>
<g id="Lit">
	<path id="bordeaux" class="st167" d="M1634.9,731.7c0,0-67.7-11.9-128.7-55.4c0,0-39.8-10.5-91.5,33c0,0-75.6-25.1-92.8,0
		c0,0-11.9,2.6,0,17.1s-26.5,31.6-26.5,31.6s22.5,4,0,15.8c0,0-31.8-4-54.4,63.3s-14.6,71.2-14.6,71.2l-4,33h412.5L1634.9,731.7z"/>
	<g id="drap">
		<path class="st168" d="M852.3,751.5c0,0-34.5-13.2-39.8-15.8s-11.9,15.8-11.9,15.8H852.3z"/>
		<path class="st168" d="M408,812.1v128h220.2c0,0-15.9-118.7,45.1-162.3"/>
	</g>
	<path id="coussin" class="st169" d="M812.5,735.6c0,0,0-39.6-83.6-84.4c0,0-61-106.9-43.8-151.7c0,0-17.2-11.9-51.7,30.4
		c0,0-15.9,2.6-34.5,26.4l-119.4,27.7c0,0-54.4,13.2-71.6,25.1v25l392.7,117.5L812.5,735.6z"/>
	<path class="st170" d="M800.7,751.1l-64.4-75.8c0,0-33.5-59.7-83.4-83.9s-63.5-49.1-102.6-45.1c0,0-74.2,25.3-93.1,57.7
		c0,0-32.9,43.5-2,32.5c0,0,95.1,9.2,135.5,76.3c0,0,54,30.9,56.7,44.3l-35.1,29.5l60.5-8.5C672.8,778.2,752.6,753.8,800.7,751.1z"
		/>
	<path id="drap2" class="st171" d="M1362.6,702.5c1.8-3.1,1.4-7-1.1-9.5c-13.6-13.9-56.1-56.2-72.7-59
		c-39.7-6.6-43.7,38.3-55.7,75.2c-16.3,50.4-31.9,44.6-35.2,42.6c-0.7-0.4-1.4-0.7-2.1-0.9c-4.4-1.1-17.6-1.5-25.6,27.4
		c-1.2,4.2-5.7,6.7-9.9,5.4c-1.9-0.6-3.5-1.8-4.6-3.5c-10-17.3-28.4-31.1-58,6.3c-1.5,1.9-3.9,3-6.3,3c-5.3-0.1-14.7-3.5-23.9-1.2
		c-2.6,0.7-5.6,3.8-7.5,2.1c-2.3-2.1-6.5-3.7-14.1,0.8c-2.4,1.4-5.4,1.4-7.8,0.1c-6.3-3.5-21-12.2-27.7-12.2h-34.6
		c-1,0-1.7,0.9-2.7,1.3c-5.8,2.4-24.6,10.4-29.2,9.2c-4.2-1.1-14.5-6.2-19.8-8c-1.4-0.5-2.1,0-2.7-1.3c-4-10.5-25.4-23.4-43.8-30.3
		c-0.8-0.3-0.5,1.3-1.3,1.3c-15.6-0.7-169.8-5.3-196.3,19.8c-27.8,26.4-68.9,59.4-54.4,163.4c0,0.2,0,0.4,0.1,0.5l0,0
		c0.8,3.7,4,6.3,7.8,6.3h581.9c2.8,0,5.4-1.5,6.8-3.9L1362.6,702.5z"/>
	<path class="st172" d="M618.9,784.4c0,0,25.2-18.5,33.2-21.1s-39.8-38.3-58.4-51.4c0,0-39.8-44.8-57-48.8c0,0-39.8-23.8-70.3-23.8
		c0,0-50.4-11.9-58.4-5.3v180.7c0,0,138.6-19.1,173.1-15.2C581.1,799.6,602.3,789.1,618.9,784.4z"/>
</g>
</svg>
